<svg width="65" height="66" viewBox="0 0 65 66" fill="none" xmlns="http://www.w3.org/2000/svg">
<circle cx="32.9945" cy="32.9999" r="32" transform="rotate(80.0628 32.9945 32.9999)" fill="url(#paint0_linear_2986_36898)"/>
<path d="M42.6022 30.0581C43.4807 30.0581 44.1953 30.773 44.1953 31.6512C44.1953 31.9476 43.9552 32.1877 43.6589 32.1877C43.3625 32.1877 43.1224 31.9476 43.1224 31.6512C43.1224 31.3643 42.889 31.131 42.6021 31.131C42.3152 31.131 42.0818 31.3643 42.0818 31.6512C42.0818 31.9476 41.8417 32.1877 41.5454 32.1877C41.249 32.1877 41.0089 31.9476 41.0089 31.6512C41.0089 30.7729 41.7235 30.0581 42.6021 30.0581H42.6022Z" fill="white"/>
<path d="M16.8163 28.334C16.8163 19.3278 24.1434 12 33.1494 12C37.609 12 41.7746 13.7625 44.8799 16.9627C47.8518 20.0258 49.4887 24.0642 49.4887 28.3337C49.4887 28.5684 49.3362 28.7762 49.1119 28.8459C48.8883 28.9166 48.6445 28.8321 48.5108 28.6384L46.7825 26.1333C46.8586 26.6536 46.9034 27.1913 46.9034 27.749V29.7628L50.6134 36.5187C50.6942 36.6655 50.7013 36.8413 50.6336 36.9945C50.5656 37.1474 50.4302 37.2602 50.2669 37.299L44.3875 38.6924V46.8941C44.3875 47.1904 44.1474 47.4305 43.8511 47.4305H37.1996V53.2345C37.1996 53.5308 36.9594 53.7709 36.6631 53.7709H22.6498C22.3535 53.7709 22.1134 53.5308 22.1134 53.2345V52.8294C19.9373 52.6404 18.0084 51.349 17.1806 49.4147C16.3529 47.4807 16.3488 44.9591 17.1638 42.4661C15.6595 39.104 15.6134 34.7713 17.0466 31.0632C16.8934 30.1557 16.8159 29.2384 16.8159 28.3339L16.8163 28.334ZM36.1271 52.6975V46.8939C36.1271 46.5976 36.3672 46.3575 36.6635 46.3575H43.3147V42.0605C41.2979 41.9019 40.2048 40.9179 40.156 40.8721C39.9411 40.67 39.931 40.334 40.1317 40.1178C40.3324 39.9016 40.6705 39.8888 40.8884 40.0881C40.9258 40.1225 41.7485 40.8458 43.3147 40.9896V38.2683C43.3147 38.0198 43.4855 37.8036 43.7276 37.7464L49.3339 36.4175L47.047 32.2529H45.8185C45.5612 33.7979 44.2189 34.981 42.6021 34.981C40.9854 34.981 39.6431 33.7979 39.3858 32.2529H33.9408C33.4764 33.1338 32.9296 34.0108 32.2941 34.8566C34.3398 38.1225 34.4708 41.9968 32.5955 44.8207C31.6572 46.2334 30.2954 47.2688 28.6436 47.8286C28.0102 49.8215 26.4759 52.1044 24.0308 52.6977L36.1271 52.6975ZM42.6022 28.4521C44.2189 28.4521 45.5612 29.6352 45.8185 31.1802H46.4577L45.8963 30.1582C45.8906 30.1477 45.8882 30.1356 45.8832 30.1248C45.8771 30.1121 45.8728 30.0993 45.8677 30.0858C45.8455 30.0262 45.8303 29.9642 45.8303 29.9002V27.7491C45.8303 27.4659 45.8145 27.189 45.7909 26.9156C45.7865 26.8644 45.7828 26.8129 45.7778 26.762C45.7515 26.5011 45.7155 26.2445 45.67 25.9929C45.6613 25.9444 45.6512 25.8969 45.6417 25.8491C45.5922 25.5969 45.5367 25.348 45.4703 25.1059C45.4683 25.0988 45.467 25.0911 45.4649 25.084C45.3962 24.8355 45.3171 24.5944 45.2329 24.3566C45.2168 24.3115 45.2013 24.2657 45.1848 24.2209C45.1006 23.9933 45.0103 23.7703 44.9144 23.5528C44.8968 23.5134 44.8787 23.4746 44.8608 23.4356C44.7632 23.2217 44.6615 23.0116 44.5544 22.8082C44.5486 22.7974 44.5432 22.786 44.5375 22.7752C44.4257 22.5644 44.3082 22.361 44.188 22.162C44.1654 22.1243 44.1428 22.0866 44.1199 22.0495C44.0021 21.8582 43.8812 21.6717 43.7579 21.4918C43.7371 21.4615 43.7162 21.4322 43.6953 21.4023C43.5741 21.2285 43.4518 21.0591 43.3279 20.8968C43.3185 20.8843 43.309 20.8712 43.2993 20.8587C43.1696 20.6894 43.039 20.5277 42.9083 20.3715C42.8834 20.3418 42.8588 20.3119 42.8342 20.2826C42.7069 20.132 42.58 19.9869 42.4547 19.8492C42.4348 19.8273 42.415 19.8064 42.3951 19.7845C42.2739 19.6528 42.1543 19.5262 42.0371 19.4067C42.0264 19.3956 42.0152 19.3838 42.0045 19.373C41.8819 19.2484 41.7627 19.1322 41.6468 19.0214C41.6243 18.9999 41.6017 18.9783 41.5795 18.9571C41.468 18.8517 41.3596 18.752 41.2572 18.6601C41.2407 18.6456 41.2256 18.6321 41.2094 18.618C41.1134 18.5328 41.0215 18.453 40.9356 18.3806C40.9248 18.3715 40.9134 18.3614 40.9026 18.3526C40.813 18.2772 40.7309 18.2102 40.6551 18.1496C40.647 18.1432 40.6393 18.1371 40.6315 18.1307C40.0728 19.0447 38.7646 20.9783 36.6396 22.9847C36.5679 23.8916 36.1837 27.4356 34.4652 31.1806H39.3851C39.6431 29.6352 40.9853 28.4522 42.6021 28.4522L42.6022 28.4521ZM40.4106 31.7166C40.4106 32.9252 41.3935 33.9082 42.6022 33.9082C43.8108 33.9082 44.7938 32.9252 44.7938 31.7166C44.7938 30.5079 43.8108 29.525 42.6022 29.525C41.3935 29.525 40.4106 30.5079 40.4106 31.7166ZM18.2273 42.2099C18.294 42.3517 18.2936 42.511 18.2343 42.6491C17.4494 44.9467 17.4248 47.2569 18.1677 48.9921C18.9722 50.8719 21.0745 52.0044 23.2893 51.7468C25.6661 51.4693 27.1324 49.2029 27.6769 47.3205C27.7093 47.1181 27.8544 46.9507 28.0524 46.8911C29.5887 46.4301 30.8512 45.5091 31.7022 44.2271C33.2839 41.8456 33.2196 38.579 31.5813 35.7419C29.6029 38.0456 26.8631 39.9991 23.0533 40.8946C23.0119 40.9044 22.9705 40.9087 22.9301 40.9087C22.6866 40.9087 22.4664 40.742 22.4084 40.4952C22.3407 40.2069 22.5196 39.918 22.8078 39.85C32.6356 37.5402 34.9288 27.66 35.4417 24.0462C35.0077 24.4061 34.5484 24.7631 34.0601 25.1116C33.8193 25.2834 33.4842 25.2278 33.3121 24.9863C33.1401 24.7452 33.196 24.4105 33.4374 24.2384C37.8385 21.0982 39.9771 17.1262 39.9983 17.0868C40.0031 17.078 40.0118 17.0733 40.0169 17.0649C40.0222 17.0561 40.0226 17.046 40.0283 17.0373C40.0462 17.011 40.0721 16.9955 40.0933 16.9733C40.1162 16.9494 40.1357 16.9245 40.1627 16.9053C40.2001 16.8787 40.2411 16.8628 40.2829 16.8467C40.3038 16.8386 40.3206 16.8231 40.3425 16.8177C40.3469 16.8167 40.3516 16.8184 40.356 16.8174C40.4092 16.8056 40.4634 16.8069 40.5179 16.8116C40.5351 16.813 40.5526 16.8086 40.5698 16.8116C40.6405 16.8244 40.7096 16.8507 40.7725 16.8935C40.951 17.014 43.9929 19.1083 45.7235 22.7082L48.301 26.4448C47.8969 23.1648 46.4441 20.1155 44.1105 17.7101C41.2094 14.7201 37.3171 13.0734 33.1499 13.0734C24.7351 13.0734 17.8891 19.9196 17.8891 28.3341C17.8891 29.2278 17.97 30.1347 18.1299 31.0301C18.1505 31.1453 18.132 31.2618 18.0811 31.3632C16.7078 34.8472 16.7641 39.0997 18.2266 42.21L18.2273 42.2099Z" fill="white"/>
<defs>
<linearGradient id="paint0_linear_2986_36898" x1="64.9945" y1="0.999878" x2="19.8686" y2="53.7769" gradientUnits="userSpaceOnUse">
<stop stop-color="#9ADB66"/>
<stop offset="1" stop-color="#7CCD3B"/>
</linearGradient>
</defs>
</svg>
