<svg width="65" height="66" viewBox="0 0 65 66" fill="none" xmlns="http://www.w3.org/2000/svg">
<circle cx="32.0057" cy="33.0001" r="32" transform="rotate(110.577 32.0057 33.0001)" fill="url(#paint0_linear_2986_36884)"/>
<path d="M26.623 34.6302C26.8907 34.5016 27.2106 34.6157 27.3379 34.8831C27.4659 35.1502 27.3528 35.4708 27.085 35.5981C26.8012 35.7338 26.5041 35.8025 26.2034 35.8025C25.0736 35.8025 24.1542 34.8831 24.1542 33.7533C24.1542 32.6235 25.0735 31.7041 26.2034 31.7041C26.5041 31.7041 26.8011 31.7731 27.085 31.9085C27.3528 32.0361 27.4659 32.3564 27.3379 32.6238C27.2106 32.8908 26.8901 33.004 26.623 32.8767C25.9498 32.5554 25.2269 33.075 25.2269 33.7529C25.2272 34.4318 25.9499 34.9514 26.623 34.6302V34.6302Z" fill="white"/>
<path d="M39.5737 29.9198C39.2774 29.9198 39.0372 29.6797 39.0372 29.3834C39.0372 29.2709 38.9456 29.179 38.8328 29.179C38.7204 29.179 38.6284 29.2706 38.6284 29.3834C38.6284 29.6797 38.3887 29.9198 38.092 29.9198C37.7956 29.9198 37.5555 29.6797 37.5555 29.3834C37.5555 28.6792 38.1287 28.1064 38.8324 28.1064C39.5366 28.1064 40.1094 28.6793 40.1094 29.3834C40.11 29.6797 39.8699 29.9198 39.5736 29.9198H39.5737Z" fill="white"/>
<path d="M16.2421 23.1636C16.5973 20.5109 18.34 14.3099 26.8406 14.0117C33.7339 13.7726 38.6572 17.2876 38.9754 17.5213C39.004 17.5408 39.0696 17.5866 39.1609 17.6533C39.1633 17.655 39.1649 17.6563 39.1673 17.658C39.1986 17.6809 39.233 17.7069 39.2707 17.7351C39.2781 17.7409 39.2848 17.7459 39.2926 17.7516C39.3276 17.7782 39.3653 17.8072 39.4047 17.8379C39.4165 17.8469 39.4273 17.8554 39.4391 17.8645C39.4785 17.8951 39.5202 17.9284 39.5637 17.9631C39.5781 17.9746 39.5919 17.9857 39.6068 17.9975C39.6489 18.0315 39.6933 18.0682 39.7388 18.1056C39.7573 18.1211 39.7751 18.1355 39.7943 18.1517C39.8388 18.1891 39.8853 18.2285 39.9324 18.2689C39.9546 18.2878 39.9758 18.3059 39.9984 18.3255C40.0449 18.3655 40.0927 18.408 40.1412 18.4511C40.1668 18.4736 40.1914 18.4955 40.2173 18.5188C40.2658 18.5625 40.316 18.6087 40.3661 18.6551C40.3934 18.6804 40.4204 18.705 40.4483 18.7313C40.4981 18.7777 40.549 18.8266 40.6002 18.8757C40.6308 18.905 40.6608 18.9336 40.6921 18.964C40.7433 19.0138 40.7952 19.066 40.8474 19.1182C40.879 19.1498 40.9103 19.1808 40.9423 19.2135C40.9945 19.2667 41.0474 19.3223 41.1006 19.3778C41.1343 19.4132 41.1679 19.4479 41.202 19.4839C41.2542 19.5395 41.3067 19.5974 41.3592 19.655C41.3946 19.694 41.4299 19.7321 41.4656 19.7722C41.5178 19.8304 41.57 19.8914 41.6226 19.9517C41.6589 19.9937 41.6956 20.0352 41.732 20.0783C41.7842 20.1399 41.8367 20.2039 41.8889 20.2679C41.926 20.313 41.9627 20.3571 41.9997 20.4029C42.0513 20.4672 42.1028 20.5339 42.1543 20.6002C42.192 20.6487 42.2294 20.6962 42.2668 20.7454C42.3176 20.8124 42.3678 20.8818 42.418 20.9508C42.4557 21.0023 42.4934 21.0528 42.5308 21.1054C42.5803 21.1751 42.6291 21.2472 42.678 21.3189C42.7153 21.3734 42.753 21.4273 42.7901 21.4832C42.8379 21.5553 42.8847 21.6297 42.9315 21.7035C42.9686 21.7617 43.0059 21.819 43.0427 21.8782C43.0888 21.9533 43.1336 22.0308 43.179 22.1076C43.2147 22.1682 43.2511 22.2278 43.2861 22.2894C43.3306 22.3679 43.3733 22.4487 43.4168 22.5288C43.4508 22.5918 43.4855 22.6538 43.5188 22.7178C43.5609 22.7992 43.6013 22.8831 43.6421 22.9663C43.6744 23.0319 43.7074 23.0963 43.7387 23.1629C43.7785 23.2475 43.8158 23.3347 43.8539 23.4209C43.8839 23.4886 43.9148 23.5553 43.9438 23.624C43.9802 23.7108 44.0142 23.8001 44.0485 23.8883C44.0765 23.9594 44.1054 24.0297 44.1324 24.1018C44.1657 24.1917 44.1957 24.284 44.227 24.3756C44.2519 24.4487 44.2782 24.5204 44.3018 24.5945C44.3314 24.6874 44.3577 24.7827 44.385 24.8774C44.4068 24.9528 44.4304 25.0272 44.451 25.104C44.4766 25.1993 44.4981 25.297 44.521 25.3939C44.5395 25.4721 44.5601 25.5492 44.5772 25.6283C44.5988 25.7283 44.616 25.8311 44.6348 25.9327C44.6493 26.0112 44.6661 26.0883 44.6789 26.1678C44.6968 26.2783 44.7099 26.3917 44.7247 26.5039C44.7342 26.5766 44.746 26.648 44.754 26.7218C44.7682 26.8504 44.7766 26.9814 44.786 27.112C44.7904 27.172 44.7971 27.2306 44.8005 27.2912C44.8109 27.4835 44.8167 27.6781 44.8167 27.8751V28.8464H45.735C46.0313 28.8464 46.2714 29.0865 46.2714 29.3828C46.2714 29.6792 46.0317 29.9193 45.735 29.9193H44.8897L48.3475 36.2159C48.4283 36.3627 48.436 36.5385 48.368 36.6917C48.3 36.8449 48.1643 36.9574 48.0013 36.9961L42.421 38.3186V46.11C42.421 46.4064 42.1812 46.6465 41.8845 46.6465H35.5745V52.1494C35.5745 52.4457 35.3347 52.6858 35.038 52.6858H19.6592C19.4996 52.6858 19.3487 52.6148 19.2463 52.4919C19.1443 52.369 19.1022 52.2073 19.1322 52.0504L21.3733 40.1018C17.1672 36.3689 15.2986 30.2171 16.2425 23.1635L16.2421 23.1636ZM43.7436 27.8761C43.7436 27.5912 43.7271 27.3131 43.7025 27.0386C43.6988 26.9965 43.6961 26.9541 43.6917 26.9127C43.6648 26.653 43.6267 26.3985 43.5799 26.1486C43.5708 26.1008 43.5614 26.0533 43.552 26.0058C43.5014 25.7569 43.4435 25.5125 43.3758 25.274C43.3664 25.2404 43.3553 25.2077 43.3455 25.1744C43.2755 24.9376 43.199 24.7056 43.1145 24.4793C43.1088 24.4638 43.1037 24.4476 43.0977 24.4322C43.0098 24.2005 42.9135 23.9762 42.8124 23.7559C42.7949 23.7176 42.7778 23.6792 42.7599 23.6411C42.6606 23.4306 42.5562 23.2259 42.4474 23.0265C42.4265 22.9882 42.405 22.9504 42.3837 22.9127C42.2716 22.7127 42.1564 22.517 42.0376 22.3291C42.0241 22.3079 42.0103 22.2877 41.9968 22.2668C41.8803 22.085 41.7611 21.9089 41.6402 21.7388C41.625 21.7173 41.6099 21.6947 41.5944 21.6735C41.4701 21.5007 41.3442 21.3354 41.2179 21.1751C41.1923 21.1428 41.1667 21.1101 41.1411 21.0781C41.0179 20.9242 40.8943 20.776 40.7714 20.6346C40.7465 20.606 40.7219 20.5784 40.6973 20.5504C40.5717 20.408 40.4467 20.2699 40.3245 20.1406C40.3137 20.1295 40.3036 20.119 40.2928 20.1079C40.1757 19.9847 40.0608 19.8688 39.949 19.7584C39.9278 19.7375 39.9059 19.7153 39.885 19.6947C39.7736 19.5859 39.6658 19.4846 39.5621 19.3889C39.5368 19.3657 39.5119 19.3428 39.4873 19.3206C39.3873 19.2297 39.2907 19.1438 39.2004 19.066C39.1805 19.0488 39.1617 19.033 39.1422 19.0162C39.057 18.9434 38.9755 18.8751 38.9017 18.8148C38.8919 18.807 38.8822 18.7986 38.8728 18.7909C38.7973 18.7296 38.73 18.6767 38.6694 18.6299C38.6613 18.6235 38.6529 18.6168 38.6448 18.611C37.7901 19.1296 35.3635 20.3905 31.9579 20.3905H26.6297L25.3774 21.7803C26.8369 23.8173 29.2214 25.6822 29.2464 25.7017C29.3774 25.8034 29.4538 25.9597 29.4538 26.1254V28.8477L35.5214 28.8473V26.61C35.5214 26.3136 35.7612 26.0735 36.0579 26.0735L41.6053 26.0738C41.9016 26.0738 42.1417 26.3139 42.1417 26.6103V28.8477H43.7436L43.7436 27.8761ZM36.5943 27.1467V31.6215H41.069V27.1467H36.5943ZM35.3813 45.5747H41.3476V41.9048H38.665C38.3687 41.9048 38.1285 41.6647 38.1285 41.3684V40.2355C38.1285 39.9392 38.3683 39.699 38.665 39.699C38.9613 39.699 39.2015 39.9392 39.2015 40.2355V40.8319H41.3476V38.4318H33.2029C32.957 38.4318 32.7398 38.5504 32.6071 38.7575C32.4745 38.9642 32.4573 39.2107 32.5607 39.4344L35.3813 45.5747ZM20.3051 51.6141H34.5011V46.2291L31.5859 39.8826C31.3313 39.329 31.3754 38.6919 31.7044 38.179C32.0334 37.6657 32.5934 37.3593 33.203 37.3593H41.8212L47.0674 36.116L43.8097 30.1834C43.804 30.173 43.8016 30.1612 43.7966 30.1501C43.7905 30.1373 43.7861 30.1245 43.7811 30.111C43.7588 30.0514 43.7437 29.9895 43.7437 29.9255V29.9208H42.1418V32.1582C42.1418 32.4545 41.902 32.6946 41.6053 32.6946H36.0579C35.7616 32.6946 35.5215 32.4545 35.5215 32.1582V29.9208H29.4538V31.03C29.4538 31.2466 29.3235 31.4419 29.1231 31.5254C28.9231 31.6089 28.6931 31.5638 28.5392 31.4106C27.9152 30.7903 27.0878 30.4488 26.2086 30.4488C24.3857 30.4488 22.9026 31.9319 22.9026 33.7548C22.9026 35.5776 24.3857 37.0604 26.2086 37.0604C27.0875 37.0604 27.9152 36.7189 28.5392 36.0986C28.7493 35.8895 29.0888 35.8905 29.2976 36.1006C29.5067 36.3108 29.5057 36.6505 29.2956 36.859C28.4695 37.6807 27.373 38.1329 26.2085 38.1329C25.6108 38.1329 25.041 38.0117 24.5214 37.7941L22.4564 40.144L20.3051 51.6141ZM21.9155 39.1345L23.5764 37.2446C22.5183 36.4445 21.8299 35.18 21.8299 33.7542C21.8299 31.3397 23.7942 29.3754 26.2088 29.3754C26.983 29.3754 27.7268 29.5751 28.3811 29.9506V26.3833C27.7022 25.8324 25.544 24.0038 24.2475 22.0298C24.1138 21.826 24.1344 21.5576 24.2973 21.3761L25.9926 19.4947C26.0943 19.3819 26.2394 19.3172 26.3913 19.3172L31.9578 19.3179C34.6104 19.3179 36.641 18.468 37.6493 17.9379C36.0848 16.991 32.0208 14.9071 26.8784 15.0842C19.4718 15.3438 17.7014 20.347 17.3057 23.3064C16.4238 29.8977 18.1055 35.6256 21.9156 39.1343L21.9155 39.1345Z" fill="white"/>
<defs>
<linearGradient id="paint0_linear_2986_36884" x1="64.0057" y1="1.00014" x2="18.8799" y2="53.7771" gradientUnits="userSpaceOnUse">
<stop stop-color="#9ADB66"/>
<stop offset="1" stop-color="#7CCD3B"/>
</linearGradient>
</defs>
</svg>
