<svg width="65" height="66" viewBox="0 0 65 66" fill="none" xmlns="http://www.w3.org/2000/svg">
<circle cx="32.0036" cy="32.9998" r="32" transform="rotate(-76.5107 32.0036 32.9998)" fill="url(#paint0_linear_2986_36905)"/>
<path d="M48.665 38.4966L43.9221 39.6191C43.879 39.6346 42.8708 40.0181 42.8708 42.3003V47.4186C42.8708 47.6992 42.6546 47.9322 42.3748 47.9534L35.7801 48.4525V54.2099C35.7801 54.5063 35.5404 54.7464 35.2437 54.7464H22.9943C22.7956 54.7464 22.6134 54.637 22.5208 54.4618C22.4275 54.2867 22.4386 54.0746 22.5497 53.9099C23.5812 52.3827 23.9247 49.9396 24.0342 48.7623C18.7774 49.5146 13.7546 48.2952 13.4055 48.2076C13.167 48.148 12.9993 47.9335 12.9993 47.688C12.9993 47.4422 13.166 47.2277 13.4041 47.1674C16.2763 46.4417 16.3113 36.0689 15.6587 29.7006C15.657 29.6824 15.656 29.6643 15.656 29.6457C15.656 25.0942 17.5502 20.7007 20.8524 17.592C23.8963 14.7266 27.7929 13.2796 31.7768 13.525H37.9084L40.7135 13.4994C43.5194 13.4994 44.6 12.2494 44.6408 12.2002C44.758 12.0548 44.9395 11.9793 45.1291 12.0049C45.3146 12.0292 45.4739 12.1487 45.5497 12.3198C45.6777 12.6091 48.5795 19.3485 44.3926 24.5373C44.4003 24.5552 44.4071 24.5737 44.4148 24.5915C44.4525 24.6798 44.4882 24.77 44.5243 24.8603C44.5556 24.9381 44.5872 25.0152 44.6172 25.0943C44.6512 25.1846 44.6825 25.2768 44.7149 25.3688C44.7431 25.4503 44.7724 25.5307 44.7994 25.6136C44.8297 25.7065 44.857 25.8018 44.8849 25.8964C44.9098 25.9806 44.9361 26.0638 44.9593 26.149C44.9859 26.2463 45.0088 26.346 45.0331 26.445C45.054 26.5302 45.0762 26.6144 45.0951 26.7006C45.1176 26.8037 45.1361 26.9091 45.156 27.0138C45.1722 27.099 45.19 27.1828 45.2045 27.2687C45.223 27.3809 45.2368 27.4953 45.2523 27.6095C45.2631 27.6907 45.2762 27.7705 45.2853 27.8526C45.2998 27.9816 45.3086 28.1136 45.3183 28.245C45.3237 28.3147 45.3315 28.3827 45.3355 28.4531C45.3469 28.6558 45.353 28.8609 45.353 29.069V29.6836L45.9029 32.0557L49.0115 37.7165C49.0924 37.8633 49.1001 38.0391 49.0321 38.1924C48.9634 38.3449 48.8277 38.4574 48.6647 38.4961L48.665 38.4966ZM44.8234 13.4469C44.1179 13.9406 42.8065 14.573 40.7187 14.573L37.9135 14.5985L31.7452 14.5972C28.0264 14.3726 24.4157 15.7128 21.5889 18.3732C18.507 21.274 16.737 25.3713 16.7296 29.6192C16.904 31.3323 18.0712 43.9868 14.9245 47.4213C18.4416 48.0369 28.4033 49.1236 32.8888 42.791C42.8485 28.7303 38.5597 19.1214 38.5156 19.0266C38.5032 19 38.5001 18.9717 38.4924 18.9444C38.4863 18.9229 38.4779 18.903 38.4745 18.8811C38.4658 18.8252 38.4661 18.7697 38.4749 18.7148C38.4762 18.707 38.4745 18.699 38.4762 18.6912C38.4894 18.6269 38.516 18.5663 38.5517 18.51C38.554 18.506 38.5543 18.5013 38.557 18.4976C38.5651 18.4854 38.5779 18.4794 38.587 18.4683C38.6079 18.442 38.6257 18.4134 38.652 18.3908C38.6624 18.3817 38.6756 18.3787 38.6864 18.3706C38.7093 18.3538 38.7332 18.3417 38.7581 18.3285C38.7928 18.3107 38.8271 18.2955 38.8645 18.2858C38.8908 18.2787 38.9164 18.2746 38.9436 18.2719C38.9632 18.2699 38.9817 18.2618 39.0012 18.2618C39.0245 18.2618 39.0474 18.2689 39.0706 18.2719C39.0884 18.2743 39.1053 18.2757 39.1231 18.2797C39.1854 18.2942 39.246 18.3164 39.3013 18.3538C39.31 18.3598 39.3279 18.372 39.3504 18.3878C39.3585 18.3935 39.3663 18.3989 39.376 18.406C39.3959 18.4201 39.4191 18.4366 39.4461 18.4562C39.4599 18.4663 39.472 18.4747 39.4875 18.4861C39.5303 18.5174 39.5774 18.5521 39.6326 18.5939C39.637 18.5973 39.6421 18.6013 39.6464 18.6047C39.6973 18.6431 39.7532 18.6865 39.8131 18.7336C39.834 18.7501 39.8556 18.7673 39.8778 18.7848C39.928 18.8246 39.9805 18.8673 40.0357 18.9125C40.0593 18.9317 40.0819 18.9502 40.1061 18.9704C40.1852 19.0357 40.2671 19.1047 40.3543 19.1802C40.3641 19.1886 40.3748 19.1984 40.3849 19.2071C40.4624 19.2745 40.5429 19.3462 40.6261 19.421C40.6557 19.4476 40.6853 19.4752 40.7156 19.5028C40.7867 19.5678 40.8591 19.6358 40.9328 19.7062C40.9621 19.7341 40.9911 19.7611 41.0207 19.79C41.1228 19.8884 41.2265 19.9904 41.3326 20.0982C41.3454 20.111 41.3582 20.1251 41.371 20.1382C41.4646 20.2342 41.5599 20.3339 41.6559 20.4373C41.6889 20.4726 41.7219 20.5087 41.7549 20.545C41.8377 20.6353 41.9205 20.7286 42.0044 20.8242C42.0354 20.8596 42.0657 20.8939 42.0967 20.93C42.2085 21.0599 42.3203 21.1936 42.4321 21.3327C42.4465 21.3509 42.461 21.3701 42.4755 21.3883C42.5725 21.5102 42.6695 21.6358 42.7658 21.7644C42.7988 21.8082 42.8311 21.8527 42.8638 21.8975C42.9483 22.0133 43.0322 22.1315 43.1153 22.2524C43.1433 22.2928 43.1712 22.3325 43.1992 22.3736C43.3073 22.5339 43.4137 22.6979 43.5178 22.8673C43.5332 22.8922 43.5477 22.9182 43.5629 22.9434C43.6511 23.0886 43.7373 23.2371 43.8218 23.3889C43.8353 23.4132 43.8501 23.4361 43.8636 23.4607C46.5101 19.752 45.3911 15.1657 44.8234 13.4466L44.8234 13.4469ZM44.9264 32.5068C44.9028 32.4637 44.8857 32.4179 44.8739 32.3698L44.2933 29.8657C44.2845 29.8263 44.2798 29.7855 44.2798 29.7448V29.0689C44.2798 28.8413 44.2694 28.6177 44.2539 28.3961C44.2495 28.3314 44.2431 28.2674 44.2374 28.2034C44.2226 28.0378 44.2037 27.8734 44.1808 27.7115C44.1724 27.6529 44.1653 27.5939 44.1559 27.536C44.1222 27.3249 44.0835 27.1164 44.0374 26.912C44.0313 26.8854 44.0239 26.8595 44.0175 26.8329C43.9754 26.6534 43.9286 26.4769 43.8781 26.3031C43.8606 26.2432 43.8424 26.1836 43.8239 26.1243C43.7771 25.9735 43.7272 25.8246 43.6743 25.6778C43.6572 25.6303 43.6413 25.5822 43.6235 25.535C43.5531 25.3471 43.4784 25.1626 43.3995 24.9817C43.3837 24.945 43.3662 24.9097 43.35 24.8736C43.284 24.7268 43.2157 24.5827 43.145 24.4409C43.1187 24.3887 43.0924 24.3365 43.0658 24.285C42.9944 24.1469 42.9214 24.0115 42.8463 23.8785C42.8267 23.8442 42.8082 23.8088 42.7883 23.7748C42.694 23.6115 42.5971 23.4522 42.4984 23.2966C42.4741 23.2586 42.4496 23.2219 42.4253 23.1845C42.3475 23.0646 42.2687 22.9467 42.1889 22.8319C42.1583 22.7875 42.1276 22.7433 42.0966 22.6999C42.0077 22.575 41.9185 22.4527 41.8283 22.3342C41.8134 22.3147 41.7986 22.2941 41.7838 22.2746C41.6787 22.1375 41.573 22.0052 41.4672 21.8765C41.439 21.8419 41.4103 21.8085 41.3821 21.7745C41.3016 21.6782 41.2214 21.5846 41.1413 21.4933C41.111 21.4586 41.0807 21.4239 41.0503 21.3899C40.95 21.2775 40.8503 21.168 40.752 21.064C40.7486 21.0603 40.7452 21.0565 40.7419 21.0528C40.6388 20.9437 40.5375 20.8404 40.4381 20.7407C40.4105 20.7131 40.3836 20.6865 40.3563 20.6595C40.2805 20.5848 40.2061 20.5124 40.1334 20.443C40.1186 20.4288 40.1037 20.4147 40.0893 20.4009C40.9533 23.9284 41.6498 32.2796 33.7654 43.4109C31.6088 46.4549 28.3824 47.9328 25.129 48.5764C25.0566 49.5449 24.7983 51.8506 23.9167 53.6738L34.7075 53.6735V47.9547C34.7075 47.6742 34.9237 47.4412 35.2035 47.42L41.7982 46.9209V43.4918H40.8101C40.5138 43.4918 40.2737 43.2517 40.2737 42.9553C40.2737 42.659 40.5134 42.4189 40.8101 42.4189H41.7982V42.3C41.7982 39.1537 43.5358 38.6142 43.6352 38.5859L47.7321 37.6151L44.9264 32.5068Z" fill="white"/>
<path d="M43.0755 32.3689C43.0755 32.1955 42.9341 32.0544 42.7606 32.0544C42.5872 32.0544 42.4464 32.1955 42.4464 32.3689C42.4464 32.6652 42.2067 32.9053 41.91 32.9053C41.6137 32.9053 41.3735 32.6652 41.3735 32.3689C41.3735 31.6038 41.9959 30.9814 42.7606 30.9814C43.5261 30.9814 44.1484 31.6038 44.1484 32.3689C44.1484 32.6652 43.9087 32.9053 43.612 32.9053C43.3153 32.9053 43.0755 32.6652 43.0755 32.3689H43.0755Z" fill="white"/>
<path d="M33.4258 36.2984C33.3193 36.2984 33.2119 36.2668 33.1183 36.2011C32.8758 36.0307 32.8172 35.6963 32.9873 35.4538C37.5716 28.9255 35.3887 19.0172 35.3662 18.9172C35.3002 18.6283 35.481 18.341 35.7699 18.2754C36.0575 18.2084 36.3461 18.3902 36.4118 18.6788C36.5088 19.1031 38.7267 29.1472 33.8653 36.0697C33.7609 36.2183 33.5945 36.2977 33.4258 36.2977L33.4258 36.2984Z" fill="white"/>
<path d="M31.3968 32.9051C31.3174 32.9051 31.2359 32.8873 31.1594 32.8496C30.8937 32.7182 30.785 32.3963 30.9163 32.1309C33.5992 26.7079 31.8636 18.6246 31.8457 18.5436C31.7817 18.2543 31.9646 17.968 32.2542 17.9041C32.5438 17.8411 32.8294 18.0229 32.8934 18.3122C32.9698 18.6581 34.7294 26.8415 31.8781 32.6065C31.7845 32.7958 31.5945 32.9052 31.3969 32.9052L31.3968 32.9051Z" fill="white"/>
<path d="M28.7859 29.8766C28.7324 29.8766 28.6785 29.8685 28.6246 29.8514C28.3424 29.7625 28.1851 29.4614 28.2741 29.1789C29.8507 24.1707 28.6135 18.6036 28.601 18.5476C28.535 18.259 28.7159 17.9714 29.0045 17.9054C29.2968 17.8387 29.5813 18.0202 29.6467 18.3085C29.7012 18.5469 30.964 24.2085 29.2978 29.501C29.2254 29.7297 29.0142 29.8765 28.7859 29.8765V29.8766Z" fill="white"/>
<path d="M25.6534 27.8161C25.5958 27.8161 25.5372 27.8067 25.4796 27.7871C25.1994 27.6912 25.0499 27.3861 25.1459 27.1059C26.2093 23.998 25.7699 20.2425 25.5315 18.7722C25.4843 18.4796 25.683 18.2041 25.9753 18.1567C26.2733 18.1082 26.5431 18.3082 26.5909 18.6005C26.9031 20.5257 27.262 24.2361 26.1612 27.4533C26.0847 27.6759 25.8766 27.816 25.6534 27.816V27.8161Z" fill="white"/>
<path d="M22.7493 25.5793C22.6839 25.5793 22.6172 25.5672 22.5529 25.5419C22.2775 25.4335 22.1418 25.122 22.2502 24.8462C23.3281 22.1064 22.5283 18.9647 22.5206 18.9334C22.4458 18.6469 22.6169 18.3539 22.9032 18.2788C23.1924 18.204 23.4824 18.3748 23.5578 18.6607C23.5948 18.8024 24.4577 22.1659 23.2487 25.2392C23.1652 25.4503 22.9631 25.5793 22.7493 25.5793L22.7493 25.5793Z" fill="white"/>
<defs>
<linearGradient id="paint0_linear_2986_36905" x1="64.0036" y1="0.999809" x2="18.8777" y2="53.7768" gradientUnits="userSpaceOnUse">
<stop stop-color="#9ADB66"/>
<stop offset="1" stop-color="#7CCD3B"/>
</linearGradient>
</defs>
</svg>
