<svg width="66" height="66" viewBox="0 0 66 66" fill="none" xmlns="http://www.w3.org/2000/svg">
<circle cx="32.9986" cy="32.9998" r="32" transform="rotate(-101.989 32.9986 32.9998)" fill="url(#paint0_linear_2986_36925)"/>
<path d="M24.637 33.1568C24.8461 33.1568 25.0435 33.0446 25.1782 32.849C25.3469 32.6048 25.6809 32.5432 25.9241 32.7119C26.1682 32.88 26.2295 33.2144 26.0615 33.4582C25.7284 33.9411 25.196 34.2297 24.6371 34.2297C23.6584 34.2297 22.8627 33.3753 22.8627 32.325C22.8627 31.2746 23.6584 30.4199 24.6371 30.4199C25.1954 30.4199 25.7281 30.7082 26.0615 31.1914C26.2295 31.4352 26.1682 31.7696 25.9241 31.9377C25.6809 32.106 25.3469 32.0444 25.1782 31.8006C25.0431 31.605 24.8461 31.4925 24.637 31.4925C24.2504 31.4925 23.9356 31.8656 23.9356 32.3246C23.9356 32.7836 24.2504 33.1567 24.637 33.1567V33.1568Z" fill="white"/>
<path d="M38.1762 27.231C38.9665 27.231 39.6094 27.8738 39.6094 28.6645C39.6094 28.9609 39.3696 29.201 39.0729 29.201C38.7766 29.201 38.5365 28.9609 38.5365 28.6645C38.5365 28.4658 38.3745 28.3039 38.1761 28.3039C37.9771 28.3039 37.8151 28.4658 37.8151 28.6645C37.8151 28.9609 37.5754 29.201 37.2787 29.201C36.9823 29.201 36.7422 28.9609 36.7422 28.6645C36.7426 27.8742 37.3858 27.231 38.1762 27.231Z" fill="white"/>
<path d="M19.6838 13.1384C19.7821 13.0495 19.9101 13 20.0431 13L49.9947 13.0003C50.2115 13.0003 50.4075 13.131 50.4904 13.3314C50.5735 13.5321 50.5274 13.7624 50.3742 13.916L44.4526 19.8368V30.0129L47.9609 36.4028C48.0417 36.5496 48.0488 36.7257 47.9808 36.879C47.9128 37.0318 47.7771 37.1446 47.6141 37.183L42.0718 38.4937V46.2363C42.0718 46.5326 41.832 46.7727 41.5353 46.7727H35.266V52.2376C35.266 52.5339 35.0262 52.774 34.7295 52.774H19.4472C19.1509 52.774 18.9108 52.5339 18.9108 52.2376L18.9105 46.2885L16.012 31.5493C16.0043 31.5126 15.9999 31.4746 15.9999 31.4352V16.7038C15.9999 16.5523 16.0642 16.4075 16.177 16.3058L19.6838 13.1384ZM19.9734 46.1323C19.9801 46.1663 19.9835 46.201 19.9835 46.2357V51.7005L34.1924 51.7009V46.2357C34.1924 45.9393 34.4322 45.6992 34.7289 45.6992H40.9983V41.542C40.615 41.6423 40.1123 41.7326 39.5162 41.7326C38.8515 41.7326 38.0783 41.6211 37.2513 41.2891C36.9761 41.1786 36.8428 40.8664 36.9532 40.5913C37.0634 40.3165 37.3759 40.1838 37.6503 40.2933C39.166 40.9018 40.4417 40.6152 40.9983 40.4276V38.069C40.9983 37.8205 41.1691 37.604 41.4112 37.5471L46.6804 36.3008L43.4452 30.4082C43.4018 30.3291 43.3792 30.2402 43.3792 30.1499V20.2299L34.6937 21.42C34.6694 21.4233 34.6455 21.425 34.6209 21.425H31.38C30.169 23.9389 27.8401 24.5259 26.786 24.6626V29.1068C27.0076 29.3105 27.2113 29.5428 27.3911 29.8032C27.5592 30.047 27.4979 30.3814 27.2544 30.5494C27.0109 30.7178 26.6772 30.6562 26.5078 30.413C25.9768 29.6429 25.179 29.2013 24.3196 29.2013C22.7904 29.2013 21.5464 30.6026 21.5464 32.325C21.5464 34.0472 22.7904 35.4484 24.3196 35.4484C25.1786 35.4484 25.9764 35.0069 26.5078 34.2371C26.6759 33.9933 27.0103 33.931 27.2544 34.1C27.4979 34.2684 27.5592 34.6025 27.3911 34.8463C27.114 35.2477 26.7819 35.5841 26.4109 35.8481L26.4085 38.6351C26.4038 38.6849 25.865 43.4382 19.504 43.7422L19.9734 46.1323ZM17.0729 31.3819L19.2921 42.6667C24.6761 42.4764 25.2913 38.9092 25.3375 38.5513V36.3667C25.0101 36.4644 24.6697 36.5206 24.3192 36.5206C22.1986 36.5206 20.4731 34.6382 20.4731 32.3243C20.4731 30.0101 22.1987 28.1277 24.3192 28.1277C24.8058 28.1277 25.2756 28.2294 25.7126 28.4146V24.1668C25.7126 23.8705 25.9524 23.6303 26.2491 23.6303C26.2794 23.6303 29.327 23.5967 30.5366 20.6821C30.6198 20.4817 30.8154 20.3514 31.0323 20.3514H34.584L43.6636 19.1074L48.6987 14.0726H20.2489L17.0722 16.9414L17.0729 31.3819Z" fill="white"/>
<defs>
<linearGradient id="paint0_linear_2986_36925" x1="64.9986" y1="0.999828" x2="19.8727" y2="53.7768" gradientUnits="userSpaceOnUse">
<stop stop-color="#9ADB66"/>
<stop offset="1" stop-color="#7CCD3B"/>
</linearGradient>
</defs>
</svg>
