<svg width="64" height="66" viewBox="0 0 64 66" fill="none" xmlns="http://www.w3.org/2000/svg">
<circle cx="31.9983" cy="33.0003" r="32" transform="rotate(-37.7087 31.9983 33.0003)" fill="url(#paint0_linear_2986_36891)"/>
<path d="M42.1069 31.6517C42.1069 31.3648 41.8735 31.1314 41.5866 31.1314C41.2997 31.1314 41.0663 31.3648 41.0663 31.6517C41.0663 31.9481 40.8262 32.1882 40.5299 32.1882C40.2335 32.1882 39.9934 31.9481 39.9934 31.6517C39.9934 30.7732 40.7083 30.0586 41.5865 30.0586C42.4651 30.0586 43.1797 30.7735 43.1797 31.6517C43.1797 31.9481 42.9396 32.1882 42.6432 32.1882C42.3469 32.1882 42.1068 31.9481 42.1068 31.6517H42.1069Z" fill="white"/>
<path d="M49.2513 37.2991L43.3719 38.6926V46.8942C43.3719 47.1906 43.1318 47.4307 42.8355 47.4307H36.1839V53.2346C36.1839 53.5309 35.9438 53.7711 35.6475 53.7711L21.6342 53.7707C21.3379 53.7707 21.0978 53.5306 21.0978 53.2343V52.8292C18.9213 52.6399 16.9928 51.3488 16.1646 49.4145C15.3379 47.4819 15.3399 44.9629 16.1532 42.472C14.6671 39.1439 14.6112 34.7526 16.032 31.0692C15.8798 30.1728 15.8003 29.2584 15.8003 28.334C15.8003 19.3278 23.1273 12 32.1343 12C36.5939 12 40.7595 13.7625 43.8647 16.9627C46.8366 20.0258 48.4735 24.0642 48.4735 28.3337C48.4735 28.5684 48.321 28.7762 48.0967 28.8459C47.8721 28.9159 47.629 28.8321 47.4956 28.6384L45.7674 26.1333C45.8435 26.6536 45.8883 27.1913 45.8883 27.749V29.7628L49.5983 36.5187C49.6784 36.6652 49.6858 36.8413 49.6178 36.9945C49.5498 37.1474 49.4144 37.2599 49.2511 37.2986L49.2513 37.2991ZM17.1514 48.9925C17.9559 50.8722 20.0657 52.0041 22.2734 51.7471C24.3138 51.509 25.681 49.8047 26.372 48.1357C25.8683 48.226 25.3557 48.2859 24.8318 48.2859C24.0805 48.2859 23.3143 48.1909 22.5529 47.9943C20.1495 47.373 18.2091 45.9465 16.886 43.8478C16.4574 45.734 16.5385 47.5595 17.1514 48.9924L17.1514 48.9925ZM17.3444 42.4877C18.5102 44.7854 20.4044 46.3304 22.822 46.9554C25.9107 47.7542 29.0718 46.6577 30.6862 44.2277C32.268 41.8462 32.2037 38.5796 30.5653 35.7425C28.5869 38.0463 25.8471 39.9997 22.0374 40.8952C21.9963 40.905 21.9549 40.9093 21.9145 40.9093H21.9138C21.8522 40.9093 21.7919 40.8982 21.7356 40.8784C21.7232 40.874 21.7124 40.8646 21.7003 40.8588C21.6562 40.8393 21.6134 40.8174 21.576 40.7868C21.5733 40.7847 21.5703 40.7841 21.5676 40.782C19.1507 38.7305 17.4191 36.057 16.5163 33.099C15.7141 36.3089 15.9963 39.8311 17.3444 42.488V42.4877ZM47.2847 26.4451C46.8806 23.1651 45.4279 20.1158 43.0942 17.7104C40.1931 14.7204 36.3008 13.0737 32.1336 13.0737C23.7188 13.0737 16.8729 19.9199 16.8729 28.3344C16.8729 32.726 18.7604 36.8788 22.0548 39.7786C31.655 37.353 33.9163 27.6266 34.4258 24.0464C33.9917 24.4063 33.5324 24.7633 33.0441 25.1118C32.803 25.2836 32.4679 25.228 32.2962 24.9865C32.1241 24.7454 32.18 24.4107 32.4215 24.2386C36.8225 21.0984 38.9612 17.1264 38.9824 17.087C38.9871 17.0782 38.9959 17.0735 39.0009 17.0651C39.0063 17.0563 39.0066 17.0462 39.0124 17.0375C39.0302 17.0109 39.0565 16.995 39.078 16.9728C39.1006 16.9496 39.1198 16.9247 39.1461 16.9058C39.1848 16.8782 39.2272 16.8613 39.271 16.8448C39.2905 16.8374 39.306 16.823 39.3266 16.8179C39.3306 16.8169 39.335 16.8182 39.339 16.8176C39.3946 16.8051 39.4512 16.8061 39.5081 16.8115C39.5232 16.8129 39.5384 16.8088 39.5532 16.8115C39.6239 16.8243 39.6929 16.8506 39.7566 16.8937C39.9351 17.0142 42.9769 19.1085 44.7076 22.7084L47.2847 26.4451ZM44.8806 30.1592C44.8749 30.1487 44.8725 30.1366 44.8675 30.1258C44.8614 30.113 44.857 30.1002 44.852 30.0868C44.8298 30.0272 44.8146 29.9652 44.8146 29.9012V27.75C44.8146 27.4668 44.7988 27.19 44.7752 26.9166C44.7708 26.8654 44.7671 26.8139 44.7621 26.763C44.7358 26.502 44.6998 26.2454 44.6543 25.9939C44.6456 25.9454 44.6355 25.8979 44.626 25.8501C44.5765 25.5979 44.521 25.349 44.4546 25.1069C44.4526 25.0998 44.4513 25.092 44.4492 25.085C44.3805 24.8365 44.3014 24.5953 44.2172 24.3576C44.201 24.3125 44.1856 24.2667 44.1691 24.2219C44.0849 23.9942 43.9946 23.7713 43.8986 23.5538C43.8811 23.5144 43.8629 23.4756 43.8451 23.4366C43.7474 23.2227 43.6457 23.0126 43.5387 22.8092C43.5329 22.7984 43.5275 22.787 43.5218 22.7762C43.41 22.5654 43.2925 22.362 43.1723 22.163C43.1497 22.1253 43.1271 22.0875 43.1042 22.0505C42.9864 21.8592 42.8655 21.6727 42.7422 21.4928C42.7213 21.4625 42.7005 21.4332 42.6796 21.4032C42.5584 21.2295 42.4361 21.0601 42.3122 20.8978C42.3028 20.8853 42.2933 20.8722 42.2836 20.8597C42.1539 20.6903 42.0233 20.5287 41.8926 20.3724C41.8677 20.3428 41.8431 20.3128 41.8185 20.2835C41.6912 20.133 41.5643 19.9879 41.439 19.8501C41.4191 19.8283 41.3993 19.8074 41.3794 19.7855C41.2582 19.6538 41.1386 19.5272 41.0214 19.4077C41.0106 19.3965 40.9995 19.3848 40.9888 19.374C40.8662 19.2494 40.747 19.1332 40.6311 19.0224C40.6086 19.0009 40.586 18.9793 40.5638 18.9581C40.4523 18.8527 40.3439 18.753 40.2415 18.6611C40.225 18.6466 40.2098 18.6331 40.1937 18.619C40.0977 18.5338 40.0058 18.454 39.9199 18.3816C39.9091 18.3725 39.8977 18.3624 39.8869 18.3536C39.7973 18.2782 39.7152 18.2112 39.6394 18.1506C39.6313 18.1442 39.6236 18.1381 39.6158 18.1317C39.0571 19.0457 37.7489 20.9793 35.6239 22.9857C35.5286 24.1912 34.8837 30.0589 31.2778 34.8575C33.3235 38.1234 33.4545 41.9977 31.5792 44.8215C30.6339 46.2447 29.2347 47.2663 27.628 47.8177C26.997 49.813 25.4654 52.1032 23.0159 52.6985L35.111 52.6979V46.8943C35.111 46.5979 35.3511 46.3578 35.6474 46.3578H42.299V42.0608C40.2821 41.9022 39.1891 40.9182 39.1402 40.8724C38.9253 40.6704 38.9152 40.3343 39.1159 40.1181C39.3156 39.9023 39.6551 39.8891 39.8726 40.0885C39.91 40.1228 40.7327 40.8462 42.299 40.99V38.2687C42.299 38.0202 42.4697 37.804 42.7118 37.7467L48.3181 36.4179L44.8806 30.1592Z" fill="white"/>
<defs>
<linearGradient id="paint0_linear_2986_36891" x1="63.9983" y1="1.00029" x2="18.8724" y2="53.7773" gradientUnits="userSpaceOnUse">
<stop stop-color="#9ADB66"/>
<stop offset="1" stop-color="#7CCD3B"/>
</linearGradient>
</defs>
</svg>
