<svg width="66" height="66" viewBox="0 0 66 66" fill="none" xmlns="http://www.w3.org/2000/svg">
<circle cx="32.9976" cy="33" r="32" transform="rotate(-15.501 32.9976 33)" fill="url(#paint0_linear_2986_36932)"/>
<path d="M26.7305 34.336C26.9396 34.336 27.1373 34.2238 27.2723 34.0278C27.4407 33.7844 27.7744 33.7217 28.0185 33.8915C28.262 34.0595 28.3233 34.3939 28.1549 34.6377C27.8215 35.1203 27.2891 35.4089 26.7305 35.4089C25.7522 35.4089 24.9565 34.5545 24.9565 33.5042C24.9565 32.4538 25.7522 31.5991 26.7305 31.5991C27.2892 31.5991 27.8216 31.8874 28.1549 32.3706C28.3233 32.6144 28.262 32.9488 28.0185 33.1169C27.7747 33.2859 27.4407 33.2236 27.2723 32.9805C27.1369 32.7845 26.9393 32.6724 26.7305 32.6724C26.3439 32.6724 26.0293 33.0455 26.0293 33.5045C26.0293 33.9625 26.3439 34.3359 26.7305 34.3359V34.336Z" fill="white"/>
<path d="M19.4792 17.3205C22.5961 13.421 27.7738 13 29.8553 13H30.9497C47.5803 13 48.282 23.3158 48.307 23.8744C48.3074 23.8818 48.3077 23.8892 48.3077 23.8963V23.897V23.906V29.5571L49.5399 37.0559C49.5651 37.2112 49.5214 37.3701 49.4193 37.4903C49.3173 37.6102 49.1678 37.6796 49.0105 37.6796H44.3862L47.8783 47.2307C47.9386 47.395 47.9147 47.5789 47.8143 47.7223C47.714 47.8658 47.5496 47.9517 47.3745 47.9517H37.3545V53.4175C37.3545 53.7138 37.1144 53.954 36.818 53.954H21.5358C21.2394 53.954 20.9993 53.7138 20.9993 53.4175L20.999 47.4674L18.1062 32.7549L17.7294 31.4083C16.3389 25.2521 16.9279 20.5123 19.4799 17.3191L19.4792 17.3205ZM36.9227 46.8799H46.6065L44.9356 42.3085C44.5513 42.5432 44.0024 42.7604 43.2596 42.7604C42.5036 42.7604 41.5529 42.5361 40.3914 41.8794C40.1334 41.7336 40.0429 41.4063 40.1883 41.1483C40.3345 40.8907 40.6618 40.7998 40.9194 40.9452C43.0285 42.1387 44.1438 41.5979 44.5567 41.2722L43.7687 39.116L37.3858 39.1163C34.2517 39.1163 31.6805 41.5726 31.4957 44.6609L36.9227 46.8799ZM22.0611 47.3129C22.0679 47.3469 22.0712 47.3816 22.0712 47.4163V52.8821H36.2811V47.7762L30.7465 45.5132C30.5448 45.4307 30.4131 45.2344 30.4131 45.0165C30.4131 41.1712 33.5412 38.043 37.3867 38.043L43.3772 38.0433L43.1155 37.3274C43.0556 37.1631 43.0795 36.9795 43.1798 36.8364C43.2802 36.6929 43.4445 36.6074 43.6193 36.6074H48.3783L47.2414 29.6888C47.2366 29.6598 47.2343 29.6309 47.2343 29.6019V24.4129L32.6572 23.603L30.4771 26.4601L31.62 29.0225C31.7116 29.2272 31.6655 29.4677 31.5052 29.6246L29.4102 31.671C29.2978 31.7815 29.1422 31.8367 28.9839 31.8212C28.8266 31.8057 28.6839 31.7219 28.5943 31.5919C28.0622 30.8217 27.2648 30.3802 26.406 30.3802C24.8769 30.3802 23.6322 31.7815 23.6322 33.5039C23.6322 35.2261 24.8765 36.6273 26.406 36.6273C27.2648 36.6273 28.0626 36.1858 28.5943 35.4156C28.7623 35.1721 29.0971 35.1102 29.3405 35.2792C29.584 35.4472 29.6453 35.7816 29.4769 36.0254C29.1998 36.4269 28.8677 36.7633 28.497 37.0269L28.4946 39.8142C28.4899 39.8641 27.9514 44.617 21.5912 44.9214L22.0611 47.3129ZM18.7687 31.147L19.1486 32.5082L21.3792 43.8464C26.7629 43.6561 27.3775 40.0889 27.424 39.7313V37.5467C27.0966 37.6444 26.7562 37.7003 26.4059 37.7003C24.285 37.7003 22.5595 35.8178 22.5595 33.504C22.5595 31.1898 24.2851 29.3073 26.4059 29.3073C27.4212 29.3073 28.3685 29.7323 29.0818 30.4917L30.4883 29.118L29.368 26.6058C29.2878 26.4267 29.3121 26.2179 29.4313 26.0619L31.9771 22.7257C32.0852 22.584 32.259 22.5035 32.4334 22.5153L47.1691 23.3349C46.8206 21.2258 44.6263 14.0735 30.9498 14.0735H29.8553C27.9291 14.0735 23.1438 14.4551 20.3172 17.9909C17.9791 20.916 17.4601 25.3514 18.7688 31.1473L18.7687 31.147Z" fill="white"/>
<path d="M41.9385 27.748C42.7393 27.748 43.3906 28.3993 43.3906 29.2005C43.3906 29.4968 43.1505 29.7369 42.8542 29.7369C42.5578 29.7369 42.3177 29.4968 42.3177 29.2005C42.3177 28.9914 42.1473 28.821 41.9385 28.821C41.7294 28.821 41.559 28.9914 41.559 29.2005C41.559 29.4968 41.3189 29.7369 41.0226 29.7369C40.7262 29.7369 40.4861 29.4968 40.4861 29.2005C40.4861 28.3997 41.1377 27.748 41.9386 27.748H41.9385Z" fill="white"/>
<defs>
<linearGradient id="paint0_linear_2986_36932" x1="64.9976" y1="0.999954" x2="19.8717" y2="53.7769" gradientUnits="userSpaceOnUse">
<stop stop-color="#9ADB66"/>
<stop offset="1" stop-color="#7CCD3B"/>
</linearGradient>
</defs>
</svg>
