<svg width="64" height="64" viewBox="0 0 64 64" fill="none" xmlns="http://www.w3.org/2000/svg">
<circle cx="32" cy="32" r="32" fill="url(#paint0_linear_2986_36918)"/>
<path d="M48.0085 37.4962L43.265 38.6186C43.2219 38.6338 42.2143 39.0177 42.2143 41.2999V46.9543C42.2143 47.2507 41.9745 47.4908 41.6778 47.4908H35.1229V53.2092C35.1229 53.5056 34.8832 53.7457 34.5865 53.7457H18.7671C18.5483 53.7457 18.3513 53.6126 18.2694 53.4093C18.1876 53.2062 18.2374 52.9738 18.3957 52.822C21.1558 50.173 22.1697 44.1873 22.5111 41.2346L20.9762 41.0538C20.8715 41.0413 20.7725 40.9982 20.6916 40.9298C17.0746 37.8597 15.0001 33.3818 15.0001 28.6451C15.0001 24.0932 16.8944 19.7 20.1965 16.5913C23.2405 13.7263 27.1374 12.2816 31.1209 12.5247L37.2522 12.525L40.0567 12.4994C42.8629 12.4994 43.9435 11.2494 43.9845 11.1999C44.1017 11.0544 44.2832 10.9793 44.4728 11.0049C44.6584 11.0292 44.8176 11.1487 44.8934 11.3198C45.0211 11.6091 47.9178 18.3455 43.7323 23.5339C44.3088 24.8613 44.6961 26.3791 44.6961 28.0686V28.6832L45.2467 31.0553L48.3553 36.7162C48.4361 36.863 48.4438 37.0388 48.3758 37.192C48.3071 37.3452 48.1714 37.4577 48.0084 37.4964L48.0085 37.4962ZM21.4423 16.9155C23.6272 16.8761 24.92 15.482 25.5747 14.4438C24.0953 15.0075 22.6994 15.8369 21.4423 16.9155ZM44.167 12.4461C43.4615 12.9398 42.1499 13.5722 40.0617 13.5722L37.2572 13.5978L35.9466 13.5974C35.8738 14.9482 35.4158 18.4988 32.6784 21.3681C30.2652 23.8981 26.7246 25.2222 22.1548 25.3031H22.1454C21.8538 25.3031 21.6144 25.069 21.609 24.776C21.6036 24.4797 21.8393 24.2356 22.136 24.2302C26.4019 24.1547 29.685 22.9461 31.8931 20.6373C34.3386 18.0811 34.7871 14.8391 34.868 13.5972L31.5914 13.5965C31.296 15.3691 29.7443 21.2627 22.155 21.392H22.1462C21.8539 21.392 21.6151 21.158 21.6097 20.8647C21.605 20.5683 21.8408 20.3242 22.1371 20.3191C28.8142 20.2053 30.228 15.2651 30.5162 13.5766C29.3308 13.5561 28.1603 13.6928 27.0261 13.9821C26.6082 14.921 24.9645 18.0009 21.3619 18.0009C21.0511 18.0009 20.7211 17.9699 20.3806 17.9204C17.6354 20.7835 16.0745 24.6484 16.0745 28.6448C16.0745 33.0128 17.9644 37.1445 21.266 40.0071L22.2957 40.1284C20.714 38.292 18.1476 34.1379 18.5689 26.8082C18.5858 26.5119 18.8464 26.2889 19.1353 26.3031C19.4307 26.3203 19.657 26.5735 19.6398 26.8695C19.1299 35.749 23.3019 39.725 24.0064 40.3302L25.8569 40.5484C24.519 38.877 22.3533 35.2338 22.0448 28.8964C22.0307 28.6004 22.2587 28.3488 22.5547 28.3343C22.847 28.3259 23.1023 28.5482 23.1167 28.8442C23.4963 36.6447 26.8635 40.1565 27.4837 40.7401L29.5467 40.9833C28.2984 39.3995 26.1893 36.0717 25.3346 30.8399C25.2868 30.5476 25.4855 30.2718 25.7778 30.224C26.0711 30.1752 26.3462 30.3742 26.3937 30.6669C27.44 37.0723 30.5102 40.53 31.1271 41.1697L33.2729 41.4226C28.0344 35.9965 27.6501 29.6344 27.6707 27.6292C27.4643 27.6433 27.2569 27.6564 27.0427 27.6635C26.7568 27.683 26.4988 27.4413 26.4894 27.1449C26.4793 26.8486 26.7117 26.6011 27.008 26.5913C36.7806 26.2731 37.7746 18.0889 37.8126 17.7411C37.8136 17.7306 37.8179 17.7215 37.8196 17.7114C37.822 17.6973 37.826 17.6838 37.8297 17.6697C37.8435 17.6141 37.8648 17.5616 37.8947 17.5141C37.8981 17.5087 37.8981 17.5027 37.9018 17.4973C37.9031 17.4956 37.9048 17.4949 37.9062 17.4929C37.9412 17.4424 37.9867 17.3999 38.0375 17.3639C38.0506 17.3545 38.0638 17.3464 38.0779 17.3383C38.0924 17.3299 38.1049 17.3188 38.1203 17.3114C38.1571 17.2942 38.1954 17.2834 38.2342 17.2753C38.2385 17.2743 38.2426 17.2723 38.247 17.2713C38.3076 17.2599 38.3692 17.2619 38.4298 17.2713C38.4436 17.2733 38.4564 17.2764 38.4699 17.2797C38.5319 17.2945 38.5921 17.3161 38.6464 17.3528C38.812 17.4646 41.467 19.2942 43.205 22.4573C45.8499 18.7503 44.7356 14.1657 44.1678 12.4467L44.167 12.4461ZM44.2701 31.5069C44.2465 31.4638 44.2293 31.418 44.2175 31.3702L43.6366 28.8661C43.6279 28.8264 43.6231 28.7856 43.6231 28.7449V28.069C43.6231 27.8053 43.6087 27.547 43.5881 27.2918C43.5837 27.2355 43.5794 27.1796 43.5736 27.1237C43.5494 26.8766 43.5177 26.6331 43.476 26.3943C43.4696 26.358 43.4615 26.3226 43.4548 26.2866C43.4147 26.0704 43.3676 25.8579 43.3143 25.6488C43.3029 25.604 43.2928 25.5588 43.2807 25.5144C43.2197 25.2874 43.1517 25.0652 43.0776 24.8473C43.0618 24.8012 43.0449 24.756 43.0288 24.7102C42.9574 24.5092 42.8813 24.3115 42.8001 24.1186C42.79 24.0946 42.7809 24.0701 42.7708 24.0465C42.6812 23.838 42.5853 23.6353 42.4863 23.4366C42.4634 23.3908 42.4405 23.3457 42.4172 23.3006C42.3162 23.1046 42.2125 22.912 42.1041 22.7261C42.0956 22.7116 42.0869 22.6978 42.0785 22.6836C41.9747 22.5072 41.8677 22.3365 41.7589 22.1694C41.7336 22.1304 41.7084 22.0913 41.6828 22.0526C41.5693 21.8818 41.4538 21.7158 41.3369 21.5555C41.315 21.5252 41.2928 21.4963 41.2706 21.4666C41.1652 21.3245 41.0591 21.1864 40.9527 21.0528C40.9305 21.0251 40.9086 20.9962 40.8864 20.9689C40.7678 20.8224 40.6493 20.6817 40.5314 20.5459C40.5035 20.514 40.4759 20.483 40.4482 20.4513C40.3368 20.325 40.226 20.2028 40.1169 20.0866C40.1074 20.0765 40.098 20.0657 40.0886 20.056C39.9721 19.9327 39.8582 19.8169 39.7464 19.7054C39.7188 19.6778 39.6912 19.6505 39.6639 19.6236C39.5565 19.5182 39.4511 19.4165 39.3501 19.3225C39.3332 19.307 39.3177 19.2929 39.3012 19.2777C39.2113 19.1949 39.1248 19.1168 39.042 19.0433C39.0197 19.0238 38.9968 19.0033 38.9753 18.9844C38.8864 18.907 38.8018 18.8345 38.7227 18.7685C38.716 18.7632 38.7099 18.7581 38.7035 18.7527C38.1634 20.9611 36.0798 26.5361 28.7464 27.521C28.7248 29.3112 29.0559 36.3307 35.1527 41.7412C35.3278 41.8968 35.3817 42.1483 35.2858 42.3618C35.1989 42.5561 35.0059 42.6787 34.7965 42.6787C34.7759 42.6787 34.7547 42.6774 34.7335 42.675L23.5763 41.36C23.253 44.1436 22.3428 49.532 19.9545 52.6723L34.0497 52.6733V46.9546C34.0497 46.6582 34.2894 46.4181 34.5861 46.4181L41.141 46.4185V42.1131C39.3633 41.9666 38.4329 41.1513 38.3908 41.1129C38.1732 40.9142 38.1588 40.5795 38.3558 40.3603C38.5517 40.1417 38.8905 40.1228 39.1111 40.3182C39.1424 40.3454 39.8122 40.9162 41.1498 41.0428C41.2441 38.1306 42.8807 37.6137 42.9773 37.586L47.0749 36.6152L44.2701 31.5069Z" fill="white"/>
<path d="M42.3079 30.8727C42.0115 30.8727 41.7714 30.6326 41.7714 30.3363C41.7714 28.9293 40.6265 27.7843 39.2192 27.7843C37.8123 27.7843 36.667 28.9292 36.667 30.3363C36.667 30.6326 36.4272 30.8727 36.1305 30.8727C35.8342 30.8727 35.5941 30.6326 35.5941 30.3363C35.5941 28.3376 37.2199 26.7114 39.2189 26.7114C41.2179 26.7114 42.8437 28.3372 42.8437 30.3363C42.8444 30.6326 42.6043 30.8727 42.308 30.8727H42.3079Z" fill="white"/>
<path d="M39.2213 28.9021C40.0123 28.9021 40.6562 29.5456 40.6562 30.337C40.6562 30.6334 40.4165 30.8735 40.1198 30.8735C39.8235 30.8735 39.5833 30.6334 39.5833 30.337C39.5833 30.1374 39.421 29.975 39.2213 29.975C39.0216 29.975 38.8593 30.1374 38.8593 30.337C38.8593 30.6334 38.6196 30.8735 38.3229 30.8735C38.0265 30.8735 37.7864 30.6334 37.7864 30.337C37.7868 29.5457 38.4306 28.9021 39.2214 28.9021H39.2213Z" fill="white"/>
<defs>
<linearGradient id="paint0_linear_2986_36918" x1="64" y1="0" x2="18.8741" y2="52.777" gradientUnits="userSpaceOnUse">
<stop stop-color="#9ADB66"/>
<stop offset="1" stop-color="#7CCD3B"/>
</linearGradient>
</defs>
</svg>
