<svg width="66" height="66" viewBox="0 0 66 66" fill="none" xmlns="http://www.w3.org/2000/svg">
<circle cx="33.0007" cy="32.9998" r="32" transform="rotate(75.4534 33.0007 32.9998)" fill="url(#paint0_linear_2986_36939)"/>
<path d="M25.6445 32.8444C25.854 32.8444 26.0516 32.7323 26.186 32.5366C26.3547 32.2928 26.6888 32.2308 26.9319 32.3996C27.176 32.5676 27.2373 32.902 27.0693 33.1458C26.7362 33.6287 26.2035 33.9173 25.6445 33.9173C24.6666 33.9173 23.8709 33.063 23.8709 32.0126C23.8709 30.9623 24.6666 30.1079 25.6445 30.1079C26.2035 30.1079 26.7363 30.3962 27.0693 30.8794C27.2373 31.1232 27.176 31.4576 26.9319 31.6257C26.6888 31.7937 26.3547 31.7324 26.186 31.4886C26.0513 31.2929 25.8539 31.1808 25.6445 31.1808C25.2579 31.1808 24.9437 31.5539 24.9437 32.0126C24.9437 32.4712 25.2579 32.8444 25.6445 32.8444V32.8444Z" fill="white"/>
<path d="M42.2525 30.4926C41.9562 30.4926 41.7161 30.2524 41.7161 29.9561C41.7161 29.7783 41.5716 29.6335 41.3935 29.6335C41.2153 29.6335 41.0709 29.7783 41.0709 29.9561C41.0709 30.2524 40.8311 30.4926 40.5344 30.4926C40.2381 30.4926 39.998 30.2524 39.998 29.9561C39.998 29.1866 40.624 28.5605 41.3935 28.5605C42.163 28.5605 42.7891 29.1866 42.7891 29.9561C42.7891 30.2524 42.549 30.4926 42.2526 30.4926H42.2525Z" fill="white"/>
<path d="M47.2181 22.4165V28.0672L47.47 29.5978H48.6042C48.9005 29.5978 49.1406 29.8379 49.1406 30.1342C49.1406 30.4306 48.9009 30.6707 48.6042 30.6707H47.6465L48.4517 35.5654C48.4772 35.721 48.4335 35.8796 48.3318 35.9998C48.2297 36.12 48.0802 36.189 47.9226 36.189H43.0659V39.9061V39.9139V45.9249C43.0659 46.2213 42.8262 46.4614 42.5295 46.4614H36.2645V51.9272C36.2645 52.2236 36.0248 52.4637 35.7281 52.4637H20.4458C20.1495 52.4637 19.9094 52.2236 19.9094 51.9272L19.9097 45.9774L17.0072 31.2236C17.0005 31.1896 16.9971 31.1549 16.9971 31.1202V28.111C16.9971 19.7788 23.7756 13.0003 32.1078 13.0003L38.066 13H38.0677H41.9167H41.9201H47.9227C48.0793 13 48.2282 13.0687 48.3302 13.1876C48.4319 13.3068 48.477 13.4644 48.4528 13.6193C48.4309 13.7604 47.9547 16.675 45.9268 19.4805C46.4743 19.9219 47.2182 20.8167 47.2182 22.4167L47.2181 22.4165ZM20.9718 45.8214C20.9785 45.8554 20.9819 45.8901 20.9819 45.9247V51.3906L35.1917 51.3909V46.4611H31.4473C31.151 46.4611 30.9109 46.221 30.9109 45.9247V42.0891C30.9109 41.7927 31.1506 41.5526 31.4473 41.5526C31.7437 41.5526 31.9838 41.7927 31.9838 42.0891V45.3883H35.7282L41.9932 45.3886V40.6939C41.6103 40.794 41.1085 40.8839 40.5135 40.8839C39.8487 40.8839 39.0755 40.7724 38.2485 40.4404C37.9734 40.3299 37.84 40.0177 37.9505 39.7426C38.0606 39.4678 38.3731 39.3351 38.6475 39.4446C40.1633 40.0524 41.4366 39.7672 41.9932 39.5796V35.6524C41.9932 35.356 42.233 35.1159 42.5297 35.1159H47.2907L46.5593 30.6705H44.8634C44.6038 32.3552 43.1486 33.6507 41.3921 33.6507C39.6356 33.6507 38.1805 32.3552 37.9208 30.6705H32.1542C31.9815 30.6705 31.8195 30.5873 31.7185 30.4472C31.0648 29.5373 29.1359 27.3191 27.4073 26.9052V28.4897C27.7784 28.7533 28.1101 29.0897 28.3873 29.4908C28.5553 29.7346 28.494 30.0687 28.2506 30.237C28.0071 30.4047 27.6734 30.3438 27.504 30.1007C26.9722 29.3305 26.1745 28.889 25.3157 28.889C23.7862 28.889 22.5419 30.2902 22.5419 32.0123C22.5419 33.7345 23.7859 35.1357 25.3157 35.1357C26.1744 35.1357 26.9722 34.6942 27.504 33.924C27.673 33.6799 28.0067 33.6193 28.2506 33.7876C28.494 33.956 28.5553 34.2901 28.3873 34.5339C28.1101 34.935 27.7781 35.2714 27.407 35.5354L27.4046 38.323C27.3999 38.3729 26.8611 43.1255 20.5015 43.4299L20.9718 45.8214ZM43.8353 30.1339C43.8353 28.7862 42.7388 27.6901 41.3914 27.6901C40.0441 27.6901 38.9476 28.7862 38.9476 30.1339C38.9476 31.4816 40.0441 32.5778 41.3914 32.5778C42.7391 32.5778 43.8353 31.4816 43.8353 30.1339ZM47.2567 14.0723H45.505C45.0083 15.8214 42.5691 22.182 33.3866 22.182C33.2754 22.182 33.1633 22.1813 33.0502 22.1793C32.7538 22.1743 32.5181 21.9301 32.5228 21.6341C32.5275 21.3411 32.767 21.1068 33.0593 21.1068H33.068C41.4542 21.2351 43.8234 15.9396 44.3976 14.0723H42.2676C41.6376 15.3122 39.0432 19.5596 33.0597 19.5596C32.7633 19.5596 32.5232 19.3195 32.5232 19.0232C32.5232 18.7269 32.763 18.4867 33.0597 18.4867C37.9096 18.4867 40.2247 15.4967 41.0542 14.0722H38.3729C37.8984 14.8576 36.3823 16.8161 33.0596 16.8161C32.7632 16.8161 32.5231 16.576 32.5231 16.2796C32.5231 15.9833 32.7629 15.7432 33.0596 15.7432C35.2088 15.7432 36.4332 14.7858 37.0491 14.0722H32.1072C24.3669 14.0722 18.069 20.3699 18.069 28.1105V31.0675L20.2895 42.3549C25.6725 42.1643 26.2878 38.5977 26.3342 38.2398V36.0549C26.0069 36.1525 25.6661 36.2088 25.3159 36.2088C23.195 36.2088 21.4696 34.3263 21.4696 32.0125C21.4696 29.6986 23.1951 27.8162 25.3159 27.8162C25.6662 27.8162 26.007 27.8724 26.3342 27.9701L26.3339 22.9572C26.3339 22.7791 26.4225 22.6127 26.5696 22.513C26.7175 22.4127 26.9054 22.3921 27.0694 22.4595C29.0324 23.2445 31.3273 23.6597 33.7057 23.6597C38.0095 23.6597 41.9871 22.2696 44.0853 20.0315C44.3039 19.7985 44.5086 19.56 44.7009 19.3189C44.7177 19.2937 44.7366 19.2698 44.7568 19.2479C46.3089 17.2664 46.9962 15.1072 47.2565 14.0727L47.2567 14.0723ZM45.2645 20.3221C45.1379 20.4713 45.0059 20.6188 44.8685 20.765C42.5742 23.2118 38.2971 24.732 33.7062 24.732C31.4819 24.732 29.3217 24.3861 27.4069 23.7284V25.8099C29.646 26.1921 31.8099 28.8027 32.4222 29.5978L37.9207 29.5974C38.1803 27.9126 39.6355 26.6172 41.392 26.6172C43.1485 26.6172 44.6036 27.9126 44.8632 29.5974H46.3823L46.152 28.1979C46.1473 28.1689 46.1446 28.1396 46.1446 28.1107V22.4162C46.1446 21.2453 45.6223 20.6159 45.2647 20.3222L45.2645 20.3221Z" fill="white"/>
<path d="M43.1979 25.789H39.5828C39.2865 25.789 39.0464 25.5489 39.0464 25.2525C39.0464 24.9562 39.2861 24.7161 39.5828 24.7161H43.1979C43.4943 24.7161 43.7344 24.9562 43.7344 25.2525C43.7344 25.5489 43.4943 25.789 43.1979 25.789Z" fill="white"/>
<defs>
<linearGradient id="paint0_linear_2986_36939" x1="65.0007" y1="0.999847" x2="19.8748" y2="53.7768" gradientUnits="userSpaceOnUse">
<stop stop-color="#9ADB66"/>
<stop offset="1" stop-color="#7CCD3B"/>
</linearGradient>
</defs>
</svg>
