<svg width="133" height="62" viewBox="0 0 133 62" fill="none" xmlns="http://www.w3.org/2000/svg">
<g clip-path="url(#clip0_2869_17147)">
<path d="M47.809 49.3202V54.5011H45.7109V47.9294H47.6782L47.809 49.3202ZM47.5537 50.9905L47.0743 51.0027C47.0743 50.5411 47.1304 50.1159 47.2424 49.7272C47.3545 49.3385 47.5205 49.0004 47.7405 48.7129C47.9604 48.4254 48.2302 48.2027 48.5498 48.0448C48.8735 47.8868 49.2471 47.8079 49.6704 47.8079C49.9651 47.8079 50.2328 47.8524 50.4735 47.9415C50.7142 48.0265 50.9218 48.1622 51.0961 48.3484C51.2704 48.5307 51.4032 48.7696 51.4945 49.0651C51.59 49.3567 51.6377 49.7069 51.6377 50.1159V54.5011H49.5397V50.3771C49.5397 50.0977 49.5065 49.8871 49.4401 49.7454C49.3778 49.6037 49.2865 49.5085 49.1661 49.4599C49.0458 49.4113 48.8984 49.3871 48.7241 49.3871C48.5415 49.3871 48.3776 49.4275 48.2323 49.5085C48.087 49.5895 47.9625 49.7029 47.8588 49.8487C47.7592 49.9904 47.6824 50.1584 47.6284 50.3528C47.5786 50.5471 47.5537 50.7597 47.5537 50.9905ZM51.4011 50.9905L50.8159 51.0027C50.8159 50.5411 50.8678 50.1159 50.9716 49.7272C51.0795 49.3385 51.2393 49.0004 51.4509 48.7129C51.6667 48.4254 51.9344 48.2027 52.254 48.0448C52.5736 47.8868 52.9451 47.8079 53.3684 47.8079C53.6755 47.8079 53.9578 47.8524 54.2151 47.9415C54.4724 48.0306 54.6945 48.1743 54.8812 48.3727C55.068 48.5711 55.2133 48.8343 55.317 49.1623C55.4208 49.4863 55.4727 49.8871 55.4727 50.3649V54.5011H53.3684V50.3649C53.3684 50.0936 53.3352 49.8891 53.2688 49.7515C53.2065 49.6098 53.1152 49.5146 52.9949 49.466C52.8745 49.4134 52.7313 49.3871 52.5653 49.3871C52.3661 49.3871 52.1938 49.4275 52.0486 49.5085C51.9033 49.5895 51.7809 49.7029 51.6813 49.8487C51.5858 49.9904 51.5153 50.1584 51.4696 50.3528C51.424 50.5471 51.4011 50.7597 51.4011 50.9905Z" fill="white"/>
<path d="M59.9364 54.6226C59.3886 54.6226 58.8988 54.5396 58.4672 54.3736C58.0355 54.2035 57.6703 53.9707 57.3715 53.6751C57.0768 53.3795 56.8506 53.0394 56.6929 52.6547C56.5393 52.2701 56.4625 51.8631 56.4625 51.4339V51.2031C56.4625 50.7213 56.531 50.2758 56.668 49.8669C56.8049 49.4539 57.0083 49.0935 57.2781 48.7858C57.5479 48.478 57.8861 48.2391 58.2928 48.0691C58.6996 47.8949 59.1727 47.8079 59.7123 47.8079C60.1896 47.8079 60.6171 47.8828 60.9948 48.0326C61.3724 48.1824 61.692 48.397 61.9535 48.6764C62.2191 48.9558 62.4204 49.2939 62.5574 49.6907C62.6985 50.0876 62.769 50.533 62.769 51.027V51.8591H57.2656V50.5775H60.7208V50.4196C60.725 50.2009 60.6855 50.0147 60.6025 49.8608C60.5237 49.7069 60.4075 49.5895 60.2539 49.5085C60.1003 49.4275 59.9136 49.3871 59.6936 49.3871C59.4653 49.3871 59.2765 49.4356 59.1271 49.5328C58.9818 49.63 58.8677 49.7636 58.7847 49.9337C58.7058 50.0997 58.6498 50.292 58.6166 50.5107C58.5834 50.7293 58.5668 50.9602 58.5668 51.2031V51.4339C58.5668 51.6769 58.6 51.8975 58.6664 52.0959C58.7369 52.2944 58.8365 52.4644 58.9652 52.6061C59.098 52.7438 59.2557 52.8511 59.4384 52.928C59.6251 53.005 59.8368 53.0434 60.0734 53.0434C60.3597 53.0434 60.642 52.9908 60.92 52.8855C61.1981 52.7802 61.4368 52.6061 61.636 52.3632L62.5885 53.4686C62.4515 53.6589 62.2565 53.8432 62.0033 54.0213C61.7543 54.1995 61.4554 54.3453 61.1068 54.4586C60.7582 54.568 60.368 54.6226 59.9364 54.6226Z" fill="white"/>
<path d="M66.467 53.0434C66.6621 53.0434 66.8281 53.009 66.9651 52.9402C67.1062 52.8673 67.212 52.7661 67.2826 52.6365C67.3573 52.5029 67.3926 52.3429 67.3884 52.1567H69.3619C69.3661 52.6507 69.2416 53.0839 68.9884 53.4565C68.7394 53.8249 68.3991 54.1124 67.9674 54.3189C67.5399 54.5214 67.0564 54.6226 66.5168 54.6226C65.9897 54.6226 65.5291 54.5396 65.1348 54.3736C64.7405 54.2035 64.4105 53.9687 64.1449 53.669C63.8834 53.3654 63.6863 53.0111 63.5535 52.6061C63.4248 52.2012 63.3605 51.7619 63.3605 51.2881V51.1484C63.3605 50.6747 63.4248 50.2354 63.5535 49.8304C63.6863 49.4215 63.8834 49.0672 64.1449 48.7675C64.4105 48.4638 64.7384 48.229 65.1285 48.063C65.5228 47.8929 65.9814 47.8079 66.5044 47.8079C67.0647 47.8079 67.5586 47.9111 67.9861 48.1176C68.4177 48.3241 68.756 48.6238 69.0009 49.0166C69.2457 49.4093 69.3661 49.8851 69.3619 50.4439H67.3884C67.3926 50.2455 67.3615 50.0673 67.295 49.9094C67.2286 49.7515 67.1249 49.626 66.9838 49.5328C66.8468 49.4356 66.6704 49.3871 66.4546 49.3871C66.2388 49.3871 66.0645 49.4336 65.9316 49.5267C65.7988 49.6199 65.6971 49.7495 65.6266 49.9155C65.5602 50.0774 65.5145 50.2637 65.4896 50.4743C65.4689 50.6848 65.4585 50.9095 65.4585 51.1484V51.2881C65.4585 51.5311 65.4689 51.7599 65.4896 51.9745C65.5145 52.185 65.5623 52.3713 65.6328 52.5333C65.7034 52.6912 65.8051 52.8167 65.9379 52.9098C66.0707 52.9989 66.2471 53.0434 66.467 53.0434Z" fill="white"/>
<path d="M72.3129 45.1719V54.5011H70.2148V45.1719H72.3129ZM72.0638 50.9905L71.572 51.0027C71.572 50.5411 71.6301 50.1159 71.7463 49.7272C71.8626 49.3385 72.0286 49.0004 72.2444 48.7129C72.4602 48.4254 72.7196 48.2027 73.0226 48.0448C73.3256 47.8868 73.6617 47.8079 74.0311 47.8079C74.3632 47.8079 74.6661 47.8544 74.9401 47.9476C75.2181 48.0407 75.4568 48.1905 75.656 48.397C75.8594 48.6035 76.015 48.8728 76.1229 49.2048C76.235 49.5369 76.291 49.9418 76.291 50.4196V54.5011H74.1805V50.4074C74.1805 50.1402 74.1411 49.9337 74.0623 49.7879C73.9876 49.6381 73.8796 49.5348 73.7385 49.4782C73.5974 49.4174 73.4252 49.3871 73.2218 49.3871C72.9769 49.3871 72.7777 49.4275 72.6241 49.5085C72.4706 49.5895 72.3523 49.7029 72.2693 49.8487C72.1904 49.9904 72.1365 50.1584 72.1074 50.3528C72.0784 50.5471 72.0638 50.7597 72.0638 50.9905Z" fill="white"/>
<path d="M80.954 52.8491V50.1402C80.954 49.9539 80.927 49.794 80.8731 49.6604C80.8191 49.5267 80.734 49.4235 80.6178 49.3506C80.5016 49.2737 80.346 49.2352 80.1509 49.2352C79.9932 49.2352 79.8583 49.2615 79.7462 49.3142C79.6342 49.3668 79.5491 49.4458 79.491 49.551C79.4329 49.6563 79.4038 49.7899 79.4038 49.9519H77.3058C77.3058 49.6482 77.3743 49.3668 77.5112 49.1077C77.6523 48.8445 77.8516 48.6157 78.1089 48.4213C78.3704 48.227 78.6816 48.0771 79.0427 47.9719C79.408 47.8625 79.8147 47.8079 80.2629 47.8079C80.7983 47.8079 81.2756 47.8949 81.6948 48.0691C82.1182 48.2432 82.4523 48.5043 82.6972 48.8526C82.942 49.1967 83.0645 49.63 83.0645 50.1523V52.843C83.0645 53.2722 83.0894 53.5982 83.1392 53.8209C83.189 54.0395 83.2595 54.2319 83.3508 54.3979V54.5011H81.2466C81.147 54.2987 81.0723 54.0517 81.0225 53.7601C80.9768 53.4646 80.954 53.1609 80.954 52.8491ZM81.2092 50.4864L81.2217 51.5797H80.2941C80.099 51.5797 79.933 51.606 79.796 51.6586C79.6632 51.7113 79.5553 51.7842 79.4723 51.8773C79.3934 51.9664 79.3353 52.0676 79.298 52.181C79.2648 52.2944 79.2482 52.4138 79.2482 52.5393C79.2482 52.6608 79.2772 52.7701 79.3353 52.8673C79.3976 52.9604 79.4806 53.0333 79.5844 53.086C79.6881 53.1386 79.8043 53.1649 79.933 53.1649C80.1654 53.1649 80.3626 53.1224 80.5244 53.0374C80.6904 52.9483 80.817 52.841 80.9042 52.7155C80.9913 52.5899 81.0349 52.4725 81.0349 52.3632L81.4956 53.2014C81.4126 53.3633 81.3171 53.5273 81.2092 53.6933C81.1055 53.8594 80.9747 54.0132 80.817 54.1549C80.6635 54.2926 80.4746 54.406 80.2505 54.4951C80.0264 54.5801 79.7545 54.6226 79.4349 54.6226C79.0199 54.6226 78.6381 54.5396 78.2894 54.3736C77.945 54.2076 77.669 53.9768 77.4614 53.6812C77.2539 53.3815 77.1502 53.0374 77.1502 52.6487C77.1502 52.3085 77.2124 52.0048 77.3369 51.7376C77.4656 51.4703 77.6586 51.2436 77.9159 51.0573C78.1732 50.8711 78.5011 50.7293 78.8995 50.6322C79.298 50.535 79.767 50.4864 80.3065 50.4864H81.2092Z" fill="white"/>
<path d="M86.2893 49.3324V54.5011H84.1913V47.9294H86.1586L86.2893 49.3324ZM86.0403 50.9905L85.5485 51.0027C85.5485 50.5006 85.6107 50.0531 85.7352 49.6604C85.8597 49.2636 86.0361 48.9275 86.2644 48.6521C86.4927 48.3768 86.7645 48.1683 87.08 48.0265C87.3995 47.8808 87.7544 47.8079 88.1445 47.8079C88.4558 47.8079 88.7401 47.8524 88.9974 47.9415C89.2589 48.0306 89.483 48.1743 89.6698 48.3727C89.8607 48.5711 90.006 48.8343 90.1056 49.1623C90.2094 49.4863 90.2612 49.8871 90.2612 50.3649V54.5011H88.1508V50.3589C88.1508 50.0957 88.1134 49.8952 88.0387 49.7576C87.964 49.6158 87.8561 49.5187 87.715 49.466C87.5739 49.4134 87.4016 49.3871 87.1982 49.3871C86.9824 49.3871 86.7998 49.4275 86.6504 49.5085C86.501 49.5895 86.3806 49.7029 86.2893 49.8487C86.2022 49.9904 86.1378 50.1584 86.0963 50.3528C86.059 50.5471 86.0403 50.7597 86.0403 50.9905Z" fill="white"/>
<path d="M93.6417 47.9294V54.5011H91.5375V47.9294H93.6417ZM91.413 46.2348C91.413 45.9432 91.5209 45.7043 91.7367 45.5181C91.9525 45.3318 92.2327 45.2387 92.5772 45.2387C92.9216 45.2387 93.2018 45.3318 93.4176 45.5181C93.6334 45.7043 93.7413 45.9432 93.7413 46.2348C93.7413 46.5263 93.6334 46.7652 93.4176 46.9515C93.2018 47.1377 92.9216 47.2309 92.5772 47.2309C92.2327 47.2309 91.9525 47.1377 91.7367 46.9515C91.5209 46.7652 91.413 46.5263 91.413 46.2348Z" fill="white"/>
<path d="M97.7817 53.0434C97.9768 53.0434 98.1428 53.009 98.2798 52.9402C98.4209 52.8673 98.5267 52.7661 98.5973 52.6365C98.672 52.5029 98.7073 52.3429 98.7031 52.1567H100.677C100.681 52.6507 100.556 53.0839 100.303 53.4565C100.054 53.8249 99.7138 54.1124 99.2821 54.3189C98.8546 54.5214 98.3711 54.6226 97.8316 54.6226C97.3045 54.6226 96.8438 54.5396 96.4495 54.3736C96.0552 54.2035 95.7252 53.9687 95.4596 53.669C95.1981 53.3654 95.001 53.0111 94.8682 52.6061C94.7395 52.2012 94.6752 51.7619 94.6752 51.2881V51.1484C94.6752 50.6747 94.7395 50.2354 94.8682 49.8304C95.001 49.4215 95.1981 49.0672 95.4596 48.7675C95.7252 48.4638 96.0531 48.229 96.4432 48.063C96.8375 47.8929 97.2962 47.8079 97.8191 47.8079C98.3794 47.8079 98.8733 47.9111 99.3008 48.1176C99.7324 48.3241 100.071 48.6238 100.316 49.0166C100.56 49.4093 100.681 49.8851 100.677 50.4439H98.7031C98.7073 50.2455 98.6762 50.0673 98.6097 49.9094C98.5433 49.7515 98.4396 49.626 98.2985 49.5328C98.1615 49.4356 97.9851 49.3871 97.7693 49.3871C97.5535 49.3871 97.3792 49.4336 97.2463 49.5267C97.1135 49.6199 97.0118 49.7495 96.9413 49.9155C96.8749 50.0774 96.8292 50.2637 96.8043 50.4743C96.7836 50.6848 96.7732 50.9095 96.7732 51.1484V51.2881C96.7732 51.5311 96.7836 51.7599 96.8043 51.9745C96.8292 52.185 96.877 52.3713 96.9475 52.5333C97.0181 52.6912 97.1198 52.8167 97.2526 52.9098C97.3854 52.9989 97.5618 53.0434 97.7817 53.0434Z" fill="white"/>
<path d="M105.072 52.8491V50.1402C105.072 49.9539 105.045 49.794 104.991 49.6604C104.937 49.5267 104.852 49.4235 104.736 49.3506C104.62 49.2737 104.464 49.2352 104.269 49.2352C104.111 49.2352 103.976 49.2615 103.864 49.3142C103.752 49.3668 103.667 49.4458 103.609 49.551C103.551 49.6563 103.522 49.7899 103.522 49.9519H101.424C101.424 49.6482 101.492 49.3668 101.629 49.1077C101.77 48.8445 101.969 48.6157 102.227 48.4213C102.488 48.227 102.8 48.0771 103.161 47.9719C103.526 47.8625 103.933 47.8079 104.381 47.8079C104.916 47.8079 105.394 47.8949 105.813 48.0691C106.236 48.2432 106.57 48.5043 106.815 48.8526C107.06 49.1967 107.182 49.63 107.182 50.1523V52.843C107.182 53.2722 107.207 53.5982 107.257 53.8209C107.307 54.0395 107.377 54.2319 107.469 54.3979V54.5011H105.365C105.265 54.2987 105.19 54.0517 105.14 53.7601C105.095 53.4646 105.072 53.1609 105.072 52.8491ZM105.327 50.4864L105.34 51.5797H104.412C104.217 51.5797 104.051 51.606 103.914 51.6586C103.781 51.7113 103.673 51.7842 103.59 51.8773C103.511 51.9664 103.453 52.0676 103.416 52.181C103.383 52.2944 103.366 52.4138 103.366 52.5393C103.366 52.6608 103.395 52.7701 103.453 52.8673C103.516 52.9604 103.599 53.0333 103.702 53.086C103.806 53.1386 103.922 53.1649 104.051 53.1649C104.283 53.1649 104.48 53.1224 104.642 53.0374C104.808 52.9483 104.935 52.841 105.022 52.7155C105.109 52.5899 105.153 52.4725 105.153 52.3632L105.614 53.2014C105.531 53.3633 105.435 53.5273 105.327 53.6933C105.223 53.8594 105.093 54.0132 104.935 54.1549C104.781 54.2926 104.593 54.406 104.368 54.4951C104.144 54.5801 103.872 54.6226 103.553 54.6226C103.138 54.6226 102.756 54.5396 102.407 54.3736C102.063 54.2076 101.787 53.9768 101.579 53.6812C101.372 53.3815 101.268 53.0374 101.268 52.6487C101.268 52.3085 101.33 52.0048 101.455 51.7376C101.584 51.4703 101.776 51.2436 102.034 51.0573C102.291 50.8711 102.619 50.7293 103.017 50.6322C103.416 50.535 103.885 50.4864 104.424 50.4864H105.327Z" fill="white"/>
<path fill-rule="evenodd" clip-rule="evenodd" d="M35.2815 49.4527L32.1507 46.1051L33.4066 44.9872L36.5374 48.3349L35.2815 49.4527Z" fill="white"/>
<path d="M25.2025 56.0872C22.0559 53.0174 22.0836 48.0133 25.2643 44.9102C28.4449 41.8071 33.5741 41.7801 36.7207 44.8499C39.8672 47.9197 39.8395 52.9238 36.6589 56.0268C33.4782 59.1299 28.349 59.1569 25.2025 56.0872Z" fill="#F00000"/>
<g opacity="0.5">
<mask id="mask0_2869_17147" style="mask-type:alpha" maskUnits="userSpaceOnUse" x="15" y="46" width="20" height="20">
<path d="M18.3275 62.7937C14.5719 59.1298 14.605 53.1571 18.4012 49.4535C22.1975 45.7498 28.3195 45.7175 32.075 49.3815C35.8305 53.0454 35.7975 59.0181 32.0012 62.7217C28.2049 66.4254 22.083 66.4577 18.3275 62.7937Z" fill="#9F9F9F"/>
</mask>
<g mask="url(#mask0_2869_17147)">
<path d="M25.2025 56.0872C22.0559 53.0174 22.0836 48.0133 25.2643 44.9102C28.4449 41.8071 33.5741 41.7801 36.7207 44.8499C39.8672 47.9197 39.8395 52.9238 36.6589 56.0268C33.4782 59.1299 28.349 59.1569 25.2025 56.0872Z" fill="#F6A63F"/>
</g>
</g>
<g opacity="0.5">
<mask id="mask1_2869_17147" style="mask-type:alpha" maskUnits="userSpaceOnUse" x="18" y="49" width="14" height="14">
<path d="M20.5579 60.6189C18.0204 58.1432 18.0427 54.1077 20.6078 51.6052C23.1728 49.1027 27.3093 49.0809 29.8468 51.5565C32.3843 54.0322 32.362 58.0677 29.797 60.5702C27.2319 63.0727 23.0955 63.0945 20.5579 60.6189Z" fill="#B5B5B5"/>
</mask>
<g mask="url(#mask1_2869_17147)">
<path d="M25.2025 56.0872C22.0559 53.0174 22.0836 48.0133 25.2643 44.9102C28.4449 41.8071 33.5741 41.7801 36.7207 44.8499C39.8672 47.9197 39.8395 52.9238 36.6589 56.0268C33.4782 59.1299 28.349 59.1569 25.2025 56.0872Z" fill="#F6A63F"/>
</g>
</g>
<mask id="mask2_2869_17147" style="mask-type:alpha" maskUnits="userSpaceOnUse" x="22" y="53" width="7" height="7">
<path d="M22.9727 58.2628C21.7546 57.0745 21.7654 55.1374 22.9966 53.9362C24.2278 52.735 26.2133 52.7245 27.4313 53.9128C28.6493 55.1011 28.6386 57.0382 27.4074 58.2394C26.1762 59.4406 24.1907 59.4511 22.9727 58.2628Z" fill="#C4C4C4"/>
</mask>
<g mask="url(#mask2_2869_17147)">
<path d="M25.2025 56.0872C22.0559 53.0174 22.0836 48.0133 25.2643 44.9102C28.4449 41.8071 33.5741 41.7801 36.7207 44.8499C39.8672 47.9197 39.8395 52.9238 36.6589 56.0268C33.4782 59.1299 28.349 59.1569 25.2025 56.0872Z" fill="#F6A63F"/>
</g>
</g>
<path d="M127.461 2.09961H128.937C129.819 2.09961 130.384 2.57046 130.384 3.41111C130.384 4.04664 130.031 4.44616 129.531 4.62273L130.496 6.21662H129.708L128.837 4.76363C128.831 4.75768 128.62 4.76363 128.614 4.76363H128.137V6.21662H127.461V2.09961ZM128.908 4.15841C129.384 4.15841 129.696 3.8998 129.696 3.423C129.696 2.94679 129.385 2.71731 128.896 2.71731H128.137V4.15841H128.908Z" fill="white"/>
<path d="M128.844 8.31131C128.283 8.31131 127.739 8.20133 127.226 7.98433C126.731 7.77506 126.287 7.47542 125.905 7.09375C125.523 6.71207 125.224 6.26856 125.014 5.77333C124.797 5.26086 124.688 4.71628 124.688 4.15566C124.688 3.59503 124.797 3.05045 125.014 2.53798C125.224 2.04335 125.523 1.59865 125.905 1.21697C126.287 0.835887 126.731 0.536252 127.226 0.326983C127.739 0.109985 128.283 0 128.844 0C129.404 0 129.949 0.109985 130.461 0.326983C130.956 0.536252 131.401 0.835887 131.782 1.21757C132.164 1.59924 132.464 2.04335 132.673 2.53858C132.89 3.05105 133 3.59562 133 4.15625C133 4.71688 132.89 5.26145 132.673 5.77392C132.464 6.26856 132.164 6.71326 131.782 7.09494C131.401 7.47661 130.957 7.77625 130.461 7.98552C129.949 8.20133 129.404 8.31131 128.844 8.31131ZM128.844 0.713417C128.379 0.713417 127.928 0.804378 127.504 0.983921C127.094 1.15752 126.725 1.40543 126.409 1.72171C126.093 2.038 125.844 2.406 125.671 2.81621C125.492 3.2401 125.401 3.69134 125.401 4.15625C125.401 4.62116 125.492 5.0718 125.671 5.49629C125.845 5.90591 126.093 6.27451 126.409 6.59079C126.725 6.90707 127.093 7.15558 127.504 7.32858C127.928 7.50812 128.379 7.59908 128.844 7.59908C129.309 7.59908 129.759 7.50812 130.184 7.32858C130.593 7.15498 130.962 6.90707 131.278 6.59079C131.595 6.27451 131.843 5.9065 132.016 5.49629C132.196 5.0724 132.287 4.62116 132.287 4.15625C132.287 3.69134 132.196 3.2407 132.016 2.81621C131.842 2.40659 131.595 2.038 131.278 1.72171C130.962 1.40543 130.594 1.15693 130.184 0.983921C129.759 0.804378 129.309 0.713417 128.844 0.713417Z" fill="white"/>
<path d="M0 20.0657C0.0838021 23.8805 3.29622 26.2408 8.39418 26.2408C13.6737 26.2408 16.8861 23.7433 16.8861 19.6128C16.8861 16.4704 15.0983 14.7002 11.1177 13.9454L8.51988 13.4514C6.3969 13.0397 5.50301 12.4085 5.50301 11.3244C5.50301 10.0071 6.6902 9.17 8.49195 9.17C10.2937 9.17 11.6485 10.1443 11.7602 11.544H16.4951C16.4112 7.88008 13.143 5.36887 8.42211 5.36887C3.56159 5.36887 0.405044 7.90753 0.405044 11.7773C0.405044 14.8923 2.30456 16.8683 5.99185 17.5544L8.64559 18.0759C10.9501 18.5287 11.8301 19.1188 11.8301 20.2166C11.8301 21.5202 10.5172 22.4259 8.60368 22.4259C6.4807 22.4259 5.01416 21.5065 4.88846 20.0657H0Z" fill="white"/>
<path d="M23.3691 16.141H23.1037V4.71019H18.1733V25.7056H23.1037V20.9164L24.0534 19.8598L27.9363 25.7056H33.6907L27.7687 16.9918L33.3136 10.4325H27.7826L23.3691 16.141Z" fill="white"/>
<path d="M33.8466 25.7056H38.7909V10.4325H33.8466V25.7056ZM36.3187 8.38782C37.7573 8.38782 38.9445 7.27629 38.9445 5.86288C38.9445 4.44946 37.7573 3.32422 36.3187 3.32422C34.8801 3.32422 33.6929 4.44946 33.6929 5.86288C33.6929 7.27629 34.8801 8.38782 36.3187 8.38782Z" fill="white"/>
<path d="M40.525 25.7056H45.4554V4.71019H40.525V25.7056Z" fill="white"/>
<path d="M47.3152 25.7056H52.2456V4.71019H47.3152V25.7056Z" fill="white"/>
<path d="M53.9658 25.7056H58.8961V16.6213C58.8961 15.0844 59.8319 14.0415 61.2147 14.0415C62.6393 14.0415 63.4354 14.8786 63.4354 16.4155V25.7056H68.1563V16.539C68.1563 15.0432 69.0362 14.0415 70.4469 14.0415C71.9413 14.0415 72.6955 14.8511 72.6955 16.4978V25.7056H77.6259V15.2628C77.6259 12.1341 75.6147 10.0757 72.5559 10.0757C70.3631 10.0757 68.5473 11.2146 67.9049 12.9574H67.6395C67.0529 11.1186 65.5444 10.0757 63.3237 10.0757C61.2845 10.0757 59.6364 11.1872 59.0358 12.9574H58.7704V10.4325H53.9658V25.7056Z" fill="white"/>
<path d="M85.0865 22.5494C83.8435 22.5494 83.0194 21.9456 83.0194 20.9713C83.0194 20.0519 83.7876 19.4893 85.2541 19.3795L87.866 19.2149V20.2166C87.866 21.534 86.6508 22.5494 85.0865 22.5494ZM83.2848 25.9389C85.2541 25.9389 86.9581 25.1155 87.6565 23.8119H87.9218V25.7056H92.7265V15.2902C92.7265 11.9968 90.2823 10.0757 85.9944 10.0757C81.7903 10.0757 79.0388 11.9145 78.8153 14.8786H83.2569C83.5781 14.0689 84.4161 13.6435 85.715 13.6435C87.0838 13.6435 87.866 14.261 87.866 15.2902V16.4841L84.472 16.6762C80.4635 16.9095 78.2567 18.5287 78.2567 21.3144C78.2567 24.1138 80.2958 25.9389 83.2848 25.9389Z" fill="white"/>
<path d="M103.902 10.1992C101.751 10.1992 100.033 11.2146 99.2653 12.9162H98.9999V10.4325H94.1953V30.7555H99.1256V23.359H99.391C100.117 24.9783 101.765 25.9389 104.014 25.9389C107.883 25.9389 110.16 23.0434 110.16 18.0622C110.16 13.0672 107.827 10.1992 103.902 10.1992ZM102.101 22.124C100.229 22.124 99.0977 20.6146 99.0977 18.0759C99.0977 15.551 100.243 14.014 102.101 14.014C103.972 14.014 105.09 15.551 105.09 18.0622C105.09 20.6008 103.986 22.124 102.101 22.124Z" fill="white"/>
<path d="M110.609 15.0295C110.609 17.4309 112.131 18.9267 115.218 19.5716L118.109 20.1754C119.352 20.4362 119.813 20.7792 119.813 21.4242C119.813 22.2475 118.933 22.7827 117.578 22.7827C116.126 22.7827 115.246 22.275 114.994 21.3281H110.232C110.511 24.402 113.053 26.0624 117.508 26.0624C121.852 26.0624 124.688 24.0315 124.688 20.8616C124.688 18.5425 123.361 17.2937 120.302 16.6625L117.089 16.0175C115.86 15.7568 115.302 15.3726 115.302 14.7276C115.302 13.9043 116.196 13.3554 117.481 13.3554C118.821 13.3554 119.645 13.8905 119.785 14.7825H124.282C124.101 11.7087 121.74 10.0757 117.439 10.0757C113.249 10.0757 110.609 11.9968 110.609 15.0295Z" fill="white"/>
<path d="M5.01709 54.877C7.26562 54.877 8.59863 53.771 8.59863 51.9106C8.59863 50.5044 7.67578 49.4937 6.24023 49.3105V49.252C7.2583 49.0688 8.06396 48.0435 8.06396 46.9448C8.06396 45.3628 6.84082 44.3081 5.03174 44.3081H1.02539V54.877H5.01709ZM2.34375 45.4727H4.73145C6.01318 45.4727 6.73096 46.0513 6.73096 47.0986C6.73096 48.2412 5.88135 48.8638 4.32129 48.8638H2.34375V45.4727ZM2.34375 53.7124V49.999H4.69482C6.37939 49.999 7.24365 50.6216 7.24365 51.8447C7.24365 53.0679 6.40869 53.7124 4.81934 53.7124H2.34375ZM10.5249 57.7261C11.9019 57.7261 12.5317 57.1914 13.1836 55.4116L16.1792 47.2598H14.8389L12.7295 53.6025H12.7075L10.5981 47.2598H9.23584L12.0483 54.8843L11.8726 55.4189C11.5796 56.3052 11.1841 56.6494 10.4736 56.6494C10.3125 56.6494 10.1147 56.6421 9.97559 56.6128V57.6821C10.1147 57.7114 10.3711 57.7261 10.5249 57.7261Z" fill="white"/>
<defs>
<clipPath id="clip0_2869_17147">
<rect width="85" height="17" fill="white" transform="translate(23 41.877)"/>
</clipPath>
</defs>
</svg>
