<svg width="35" height="35" viewBox="0 0 35 35" fill="none" xmlns="http://www.w3.org/2000/svg">
<path d="M12.2331 14.3256C12.1506 14.2123 12.0417 14.1233 11.9169 14.0671C11.7921 14.0109 11.6556 13.9894 11.5205 14.0048C11.3855 14.0203 11.2566 14.072 11.1462 14.155C11.0358 14.238 10.9476 14.3496 10.8902 14.4788L4.08584 28.7639C4.02386 28.8941 3.99459 29.0388 4.00082 29.1842C4.00705 29.3296 4.04858 29.4709 4.12145 29.5948C4.19432 29.7186 4.29613 29.8208 4.4172 29.8917C4.53827 29.9625 4.67458 29.9998 4.8132 29.9998H14.288C14.4397 30.0035 14.5892 29.9608 14.7183 29.877C14.8475 29.7932 14.9506 29.6719 15.0153 29.5277C17.0592 25.0931 15.8205 18.3502 12.2331 14.3256Z" fill="url(#paint0_linear)"/>
<path d="M17.8266 2.44056C16.1732 5.07399 15.2096 8.10716 15.0305 11.2424C14.8514 14.3777 15.4629 17.5072 16.8049 20.324L21.2595 29.5462C21.3254 29.6825 21.4266 29.7972 21.5519 29.8774C21.6772 29.9575 21.8216 30 21.9688 30H31.207C31.3421 30 31.4751 29.9642 31.5931 29.8961C31.7112 29.8279 31.8105 29.7297 31.8816 29.6106C31.9526 29.4916 31.9931 29.3557 31.9992 29.2159C32.0053 29.0762 31.9767 28.9371 31.9163 28.8119C31.9163 28.8119 19.4879 3.07904 19.1755 2.43541C19.1138 2.3044 19.0176 2.19405 18.898 2.11704C18.7785 2.04003 18.6403 1.99947 18.4995 2.00001C18.3587 2.00054 18.2208 2.04216 18.1018 2.12008C17.9828 2.19801 17.8874 2.30908 17.8266 2.44056Z" fill="#2684FF"/>
<defs>
<linearGradient id="paint0_linear" x1="15.9622" y1="16.5302" x2="8.2428" y2="29.2637" gradientUnits="userSpaceOnUse">
<stop stop-color="#0052CC"/>
<stop offset="0.923" stop-color="#2684FF"/>
</linearGradient>
</defs>
</svg>