<svg width="28" height="28" viewBox="0 0 28 28" fill="none" xmlns="http://www.w3.org/2000/svg">
<circle cx="14" cy="14" r="14" fill="white"/>
<path d="M6.96243 13.7355C10.7205 12.1831 13.2265 11.1597 14.4804 10.6653C18.0604 9.2535 18.8043 9.00826 19.2892 9.00008C19.3958 8.99838 19.6343 9.02344 19.7887 9.14226C19.9192 9.2426 19.955 9.37813 19.9722 9.47325C19.9894 9.56838 20.0108 9.78508 19.9938 9.9544C19.7998 11.887 18.9603 16.5769 18.5332 18.7415C18.3525 19.6574 17.9967 19.9645 17.6522 19.9945C16.9036 20.0599 16.3351 19.5255 15.6101 19.0749C14.4755 18.3697 13.8345 17.9308 12.7332 17.2427C11.4604 16.4475 12.2855 16.0104 13.0108 15.2962C13.2006 15.1092 16.4991 12.2648 16.5629 12.0067C16.5709 11.9745 16.5783 11.8542 16.503 11.7906C16.4276 11.7271 16.3163 11.7488 16.236 11.7661C16.1222 11.7906 14.3097 12.9264 10.7984 15.1736C10.2839 15.5086 9.81791 15.6718 9.40039 15.6632C8.9401 15.6538 8.05469 15.4165 7.39648 15.2136C6.58916 14.9648 5.94752 14.8333 6.00339 14.4107C6.03249 14.1906 6.35217 13.9656 6.96243 13.7355Z" fill="black"/>
</svg>
