<svg width="28" height="28" viewBox="0 0 28 28" fill="none" xmlns="http://www.w3.org/2000/svg">
<circle cx="14" cy="14" r="14" fill="white"/>
<path d="M21 10.2692C20.475 10.5231 19.95 10.6077 19.3375 10.6923C19.95 10.3538 20.3875 9.84615 20.5625 9.16923C20.0375 9.50769 19.425 9.67692 18.725 9.84615C18.2 9.33846 17.4125 9 16.625 9C14.7875 9 13.3875 10.6923 13.825 12.3846C11.4625 12.3 9.3625 11.2 7.875 9.50769C7.0875 10.7769 7.525 12.3846 8.75 13.2308C8.3125 13.2308 7.875 13.0615 7.4375 12.8923C7.4375 14.1615 8.4 15.3462 9.7125 15.6846C9.275 15.7692 8.8375 15.8538 8.4 15.7692C8.75 16.8692 9.8 17.7154 11.1125 17.7154C10.0625 18.4769 8.4875 18.9 7 18.7308C8.3125 19.4923 9.8 20 11.375 20C16.7125 20 19.6875 15.6846 19.5125 11.7077C20.125 11.3692 20.65 10.8615 21 10.2692Z" fill="black"/>
</svg>
