<svg width="28" height="28" viewBox="0 0 28 28" fill="none" xmlns="http://www.w3.org/2000/svg">
<circle cx="14" cy="14" r="14" fill="white"/>
<path d="M9.37478 16.1146C9.37478 17.0446 8.62318 17.7962 7.69325 17.7962C6.76331 17.7962 6.01172 17.0446 6.01172 16.1146C6.01172 15.1847 6.76331 14.4331 7.69325 14.4331H9.37478V16.1146Z" fill="black"/>
<path d="M10.2188 16.1146C10.2188 15.1847 10.9703 14.4331 11.9003 14.4331C12.8302 14.4331 13.5818 15.1847 13.5818 16.1146V20.3185C13.5818 21.2484 12.8302 22 11.9003 22C10.9703 22 10.2188 21.2484 10.2188 20.3185V16.1146Z" fill="black"/>
<path d="M11.9003 9.36306C10.9703 9.36306 10.2188 8.61147 10.2188 7.68153C10.2188 6.75159 10.9703 6 11.9003 6C12.8302 6 13.5818 6.75159 13.5818 7.68153V9.36306H11.9003Z" fill="black"/>
<path d="M11.8981 10.2166C12.828 10.2166 13.5796 10.9681 13.5796 11.8981C13.5796 12.828 12.828 13.5796 11.8981 13.5796H7.68153C6.75159 13.5796 6 12.828 6 11.8981C6 10.9681 6.75159 10.2166 7.68153 10.2166H11.8981Z" fill="black"/>
<path d="M18.6367 11.8981C18.6367 10.9681 19.3883 10.2166 20.3182 10.2166C21.2482 10.2166 21.9998 10.9681 21.9998 11.8981C21.9998 12.828 21.2482 13.5796 20.3182 13.5796H18.6367V11.8981Z" fill="black"/>
<path d="M17.7967 11.8981C17.7967 12.828 17.0451 13.5796 16.1151 13.5796C15.1852 13.5796 14.4336 12.828 14.4336 11.8981V7.68153C14.4336 6.75159 15.1852 6 16.1151 6C17.0451 6 17.7967 6.75159 17.7967 7.68153V11.8981Z" fill="black"/>
<path d="M16.1151 18.637C17.0451 18.637 17.7967 19.3886 17.7967 20.3185C17.7967 21.2484 17.0451 22 16.1151 22C15.1852 22 14.4336 21.2484 14.4336 20.3185V18.637H16.1151Z" fill="black"/>
<path d="M16.1151 17.7962C15.1852 17.7962 14.4336 17.0446 14.4336 16.1146C14.4336 15.1847 15.1852 14.4331 16.1151 14.4331H20.3317C21.2616 14.4331 22.0132 15.1847 22.0132 16.1146C22.0132 17.0446 21.2616 17.7962 20.3317 17.7962H16.1151Z" fill="black"/>
</svg>
