<svg width="28" height="28" viewBox="0 0 28 28" fill="none" xmlns="http://www.w3.org/2000/svg">
<circle cx="14" cy="14" r="14" fill="white"/>
<path fill-rule="evenodd" clip-rule="evenodd" d="M20.647 10.6246C20.7582 10.2722 20.647 10.016 20.1546 10.016H18.5183C18.1052 10.016 17.9146 10.2402 17.8034 10.4804C17.8034 10.4804 16.9614 12.5302 15.7859 13.8594C15.4046 14.2438 15.2298 14.3719 15.0233 14.3719C14.9121 14.3719 14.7691 14.2438 14.7691 13.8915V10.6085C14.7691 10.1922 14.6421 10 14.2926 10H11.719C11.4648 10 11.306 10.1922 11.306 10.3843C11.306 10.7847 11.8938 10.8808 11.9573 12.0018V14.4359C11.9573 14.9644 11.862 15.0605 11.6555 15.0605C11.0995 15.0605 9.74913 12.9947 8.93894 10.6406C8.78007 10.1762 8.62121 10 8.20817 10H6.55601C6.07943 10 6 10.2242 6 10.4644C6 10.8968 6.55602 13.0747 8.58944 15.9573C9.93976 17.927 11.862 18.984 13.5936 18.984C14.6421 18.984 14.7691 18.7438 14.7691 18.3434V16.8541C14.7691 16.3737 14.8645 16.2936 15.1981 16.2936C15.4364 16.2936 15.8653 16.4217 16.8343 17.3665C17.9464 18.4875 18.137 19 18.7566 19H20.3928C20.8694 19 21.0918 18.7598 20.9647 18.2954C20.8218 17.831 20.2816 17.1584 19.5826 16.3577C19.2014 15.9093 18.6295 15.4128 18.4547 15.1726C18.2164 14.8523 18.28 14.7242 18.4547 14.4359C18.4388 14.4359 20.4405 11.5854 20.647 10.6246Z" fill="#151515"/>
</svg>
