<svg width="28" height="28" viewBox="0 0 28 28" fill="none" xmlns="http://www.w3.org/2000/svg">
<circle cx="14" cy="14" r="14" fill="white"/>
<path d="M19.5535 9.005C18.5178 8.5355 17.4104 8.19429 16.2526 8C16.1104 8.24907 15.9443 8.58408 15.8298 8.85057C14.599 8.67124 13.3796 8.67124 12.1714 8.85057C12.0569 8.58408 11.887 8.24907 11.7436 8C10.5845 8.19429 9.47584 8.53675 8.44013 9.00748C6.3511 12.066 5.78479 15.0486 6.06794 17.9888C7.4535 18.9913 8.79627 19.6003 10.1164 19.9988C10.4423 19.5641 10.733 19.1021 10.9835 18.6152C10.5065 18.4396 10.0497 18.2229 9.61805 17.9714C9.73256 17.8892 9.84457 17.8032 9.95279 17.7148C12.5855 18.9079 15.4459 18.9079 18.0472 17.7148C18.1566 17.8032 18.2686 17.8892 18.3819 17.9714C17.949 18.2242 17.4909 18.4408 17.014 18.6165C17.2644 19.1021 17.5538 19.5654 17.881 20C19.2024 19.6015 20.5464 18.9925 21.932 17.9888C22.2642 14.5803 21.3644 11.6252 19.5535 9.005ZM11.3421 16.1806C10.5518 16.1806 9.9037 15.4658 9.9037 14.5953C9.9037 13.7248 10.538 13.0087 11.3421 13.0087C12.1463 13.0087 12.7944 13.7235 12.7805 14.5953C12.7818 15.4658 12.1463 16.1806 11.3421 16.1806ZM16.6578 16.1806C15.8675 16.1806 15.2194 15.4658 15.2194 14.5953C15.2194 13.7248 15.8537 13.0087 16.6578 13.0087C17.462 13.0087 18.1101 13.7235 18.0962 14.5953C18.0962 15.4658 17.462 16.1806 16.6578 16.1806Z" fill="black"/>
</svg>
