<svg width="40" height="40" viewBox="0 0 40 40" fill="none" xmlns="http://www.w3.org/2000/svg">
<rect width="40" height="40" rx="6" fill="#4B94F3"/>
<path d="M23.0837 12C24.5177 12 25.2157 12.1348 25.9411 12.5227C26.6014 12.8759 27.1241 13.3986 27.4773 14.0589C27.8652 14.7843 28 15.4823 28 16.9163V23.0837C28 24.5177 27.8652 25.2157 27.4773 25.9411C27.1241 26.6014 26.6014 27.1241 25.9411 27.4773C25.2157 27.8652 24.5177 28 23.0837 28H16.9163C15.4823 28 14.7843 27.8652 14.0589 27.4773C13.3986 27.1241 12.8759 26.6014 12.5227 25.9411C12.1348 25.2157 12 24.5177 12 23.0837V16.9163C12 15.4823 12.1348 14.7843 12.5227 14.0589C12.8759 13.3986 13.3986 12.8759 14.0589 12.5227C14.7843 12.1348 15.4823 12 16.9163 12H23.0837ZM23.0837 13.5H16.9163C15.7087 13.5 15.2447 13.5896 14.7663 13.8455C14.3674 14.0588 14.0588 14.3674 13.8455 14.7663C13.5896 15.2447 13.5 15.7087 13.5 16.9163V23.0837C13.5 24.2913 13.5896 24.7553 13.8455 25.2337C14.0588 25.6326 14.3674 25.9412 14.7663 26.1545C15.2447 26.4104 15.7087 26.5 16.9163 26.5H23.0837C24.2913 26.5 24.7553 26.4104 25.2337 26.1545C25.6326 25.9412 25.9412 25.6326 26.1545 25.2337C26.4104 24.7553 26.5 24.2913 26.5 23.0837V16.9163C26.5 15.7087 26.4104 15.2447 26.1545 14.7663C25.9412 14.3674 25.6326 14.0588 25.2337 13.8455C24.7553 13.5896 24.2913 13.5 23.0837 13.5ZM21.25 22.5C21.6642 22.5 22 22.8358 22 23.25C22 23.6642 21.6642 24 21.25 24H16.75C16.3358 24 16 23.6642 16 23.25C16 22.8358 16.3358 22.5 16.75 22.5H21.25ZM23.25 19.25C23.6642 19.25 24 19.5858 24 20C24 20.4142 23.6642 20.75 23.25 20.75H16.75C16.3358 20.75 16 20.4142 16 20C16 19.5858 16.3358 19.25 16.75 19.25H23.25ZM23.25 16C23.6642 16 24 16.3358 24 16.75C24 17.1642 23.6642 17.5 23.25 17.5H16.75C16.3358 17.5 16 17.1642 16 16.75C16 16.3358 16.3358 16 16.75 16H23.25Z" fill="white"/>
</svg>
