<svg width="40" height="40" viewBox="0 0 40 40" fill="none" xmlns="http://www.w3.org/2000/svg">
<g opacity="0.3">
<rect width="40" height="40" rx="6" fill="#C27BE0"/>
<path d="M20.601 12.154L28.3511 16.4037C28.7653 16.6308 28.9998 17.0583 29.0003 17.4995L29 17.4998V22.7498C29 23.164 28.6642 23.4998 28.25 23.4998C27.8358 23.4998 27.5 23.164 27.5 22.7498L27.4997 19.062L25.9997 19.884L26 22.9998C26 25.8002 23.2829 27.9998 20 27.9998C16.7171 27.9998 14 25.8002 14 22.9998L13.9997 19.884L11.6489 18.5958C11.0436 18.2639 10.822 17.5041 11.1539 16.8988C11.2684 16.69 11.4401 16.5182 11.6489 16.4037L19.399 12.154C19.7734 11.9487 20.2266 11.9487 20.601 12.154ZM24.4997 20.707L20.601 22.8456C20.2266 23.0508 19.7734 23.0508 19.399 22.8456L15.4997 20.707L15.5 22.9998C15.5 24.8937 17.484 26.4998 20 26.4998C22.5161 26.4998 24.5 24.8937 24.5 22.9998L24.4997 20.707ZM20 13.5351L12.7699 17.4998L20 21.4644L27.2301 17.4998L20 13.5351Z" fill="white"/>
</g>
</svg>
