<svg width="40" height="40" viewBox="0 0 40 40" fill="none" xmlns="http://www.w3.org/2000/svg">
<rect width="40" height="40" rx="6" fill="#E84E3D"/>
<path d="M20 11.4287C24.7339 11.4287 28.5714 15.2663 28.5714 20.0001C28.5714 24.734 24.7339 28.5716 20 28.5716C15.2661 28.5716 11.4286 24.734 11.4286 20.0001C11.4286 15.2663 15.2661 11.4287 20 11.4287ZM20 12.8573C16.0551 12.8573 12.8572 16.0552 12.8572 20.0001C12.8572 23.945 16.0551 27.143 20 27.143C23.9449 27.143 27.1429 23.945 27.1429 20.0001C27.1429 16.0552 23.9449 12.8573 20 12.8573ZM18.5391 16.5153C18.7837 16.5153 19.0239 16.5795 19.2358 16.7015L22.8633 18.7901C23.5316 19.1749 23.7615 20.0285 23.3767 20.6968C23.2538 20.9102 23.0767 21.0873 22.8633 21.2101L19.2358 23.2987C18.5675 23.6835 17.7139 23.4537 17.3291 22.7854C17.2071 22.5735 17.1429 22.3332 17.1429 22.0887V17.9115C17.1429 17.1404 17.768 16.5153 18.5391 16.5153ZM18.5714 17.9674V22.0328L22.1019 20.0001L18.5714 17.9674Z" fill="white"/>
</svg>
