<svg width="60" height="60" viewBox="0 0 60 60" fill="none" xmlns="http://www.w3.org/2000/svg">
<path d="M57.1875 0.9375H2.8125C1.77697 0.9375 0.9375 1.77697 0.9375 2.8125V57.1875C0.9375 58.223 1.77697 59.0625 2.8125 59.0625H57.1875C58.223 59.0625 59.0625 58.223 59.0625 57.1875V2.8125C59.0625 1.77697 58.223 0.9375 57.1875 0.9375Z" stroke="#9ADB66" stroke-width="2" stroke-linejoin="round"/>
<path d="M0.9375 8.4375H59.0625" stroke="#9ADB66" stroke-width="2" stroke-linejoin="round"/>
<path d="M3.75 4.6875H5.625" stroke="#9ADB66" stroke-width="2" stroke-linejoin="round"/>
<path d="M7.5 4.6875H9.375" stroke="#9ADB66" stroke-width="2" stroke-linejoin="round"/>
<path d="M54.375 4.6875H56.25" stroke="#9ADB66" stroke-width="2" stroke-linejoin="round"/>
<path d="M9.375 35.625H26.25" stroke="#9ADB66" stroke-width="2" stroke-linejoin="round"/>
<path d="M33.75 30H26.25C25.7322 30 25.3125 30.4197 25.3125 30.9375V36.5625C25.3125 37.0803 25.7322 37.5 26.25 37.5H33.75C34.2678 37.5 34.6875 37.0803 34.6875 36.5625V30.9375C34.6875 30.4197 34.2678 30 33.75 30Z" stroke="#9ADB66" stroke-width="2" stroke-linejoin="round"/>
<path d="M34.6875 35.625H50.625" stroke="#9ADB66" stroke-width="2" stroke-linejoin="round"/>
<path d="M9.375 31.875H26.25" stroke="#9ADB66" stroke-width="2" stroke-linejoin="round"/>
<path d="M34.6875 31.875H50.625" stroke="#9ADB66" stroke-width="2" stroke-linejoin="round"/>
<path d="M30 37.5V30" stroke="#9ADB66" stroke-width="2" stroke-linejoin="round"/>
<path d="M9.375 18.75H20.625" stroke="#9ADB66" stroke-width="2" stroke-linejoin="round"/>
<path d="M29.0625 13.125H21.5625C21.0447 13.125 20.625 13.5447 20.625 14.0625V19.6875C20.625 20.2053 21.0447 20.625 21.5625 20.625H29.0625C29.5803 20.625 30 20.2053 30 19.6875V14.0625C30 13.5447 29.5803 13.125 29.0625 13.125Z" stroke="#9ADB66" stroke-width="2" stroke-linejoin="round"/>
<path d="M30 18.75H50.625" stroke="#9ADB66" stroke-width="2" stroke-linejoin="round"/>
<path d="M25.3125 20.625V13.125" stroke="#9ADB66" stroke-width="2" stroke-linejoin="round"/>
<path d="M9.375 15H20.625" stroke="#9ADB66" stroke-width="2" stroke-linejoin="round"/>
<path d="M18.75 52.5H9.375" stroke="#9ADB66" stroke-width="2" stroke-linejoin="round"/>
<path d="M27.1875 46.875H19.6875C19.1697 46.875 18.75 47.2947 18.75 47.8125V53.4375C18.75 53.9553 19.1697 54.375 19.6875 54.375H27.1875C27.7053 54.375 28.125 53.9553 28.125 53.4375V47.8125C28.125 47.2947 27.7053 46.875 27.1875 46.875Z" stroke="#9ADB66" stroke-width="2" stroke-linejoin="round"/>
<path d="M50.625 15H30" stroke="#9ADB66" stroke-width="2" stroke-linejoin="round"/>
<path d="M28.125 52.5H50.625" stroke="#9ADB66" stroke-width="2" stroke-linejoin="round"/>
<path d="M9.375 48.75H18.75" stroke="#9ADB66" stroke-width="2" stroke-linejoin="round"/>
<path d="M28.125 48.75H50.625" stroke="#9ADB66" stroke-width="2" stroke-linejoin="round"/>
<path d="M23.4375 54.375V46.875" stroke="#9ADB66" stroke-width="2" stroke-linejoin="round"/>
<path d="M53.4375 32.8125V30.9375" stroke="#9ADB66" stroke-width="2" stroke-linejoin="round"/>
<path d="M53.4375 36.5625V34.6875" stroke="#9ADB66" stroke-width="2" stroke-linejoin="round"/>
<path d="M6.5625 49.6875V47.8125" stroke="#9ADB66" stroke-width="2" stroke-linejoin="round"/>
<path d="M6.5625 53.4375V51.5625" stroke="#9ADB66" stroke-width="2" stroke-linejoin="round"/>
<path d="M6.5625 15.9375V14.0625" stroke="#9ADB66" stroke-width="2" stroke-linejoin="round"/>
<path d="M6.5625 19.6875V17.8125" stroke="#9ADB66" stroke-width="2" stroke-linejoin="round"/>
<path d="M53.4375 15.9375V14.0625" stroke="#9ADB66" stroke-width="2" stroke-linejoin="round"/>
<path d="M53.4375 19.6875V17.8125" stroke="#9ADB66" stroke-width="2" stroke-linejoin="round"/>
<path d="M53.4375 49.6875V47.8125" stroke="#9ADB66" stroke-width="2" stroke-linejoin="round"/>
<path d="M53.4375 53.4375V51.5625" stroke="#9ADB66" stroke-width="2" stroke-linejoin="round"/>
<path d="M6.5625 32.8125V30.9375" stroke="#9ADB66" stroke-width="2" stroke-linejoin="round"/>
<path d="M6.5625 36.5625V34.6875" stroke="#9ADB66" stroke-width="2" stroke-linejoin="round"/>
</svg>
