<svg width="60" height="60" viewBox="0 0 60 60" fill="none" xmlns="http://www.w3.org/2000/svg">
<path d="M54.375 14.0625H38.4375V17.8125H54.375V14.0625Z" stroke="#9ADB66" stroke-width="2" stroke-linejoin="round"/>
<path d="M37.5 21.5625H47.8125" stroke="#9ADB66" stroke-width="2" stroke-linejoin="round"/>
<path d="M55.3125 21.5625H53.4375" stroke="#9ADB66" stroke-width="2" stroke-linejoin="round"/>
<path d="M51.5625 21.5625H49.6875" stroke="#9ADB66" stroke-width="2" stroke-linejoin="round"/>
<path d="M35.6252 14.0625H30.0002C29.8764 14.0598 29.7533 14.0822 29.6383 14.1284C29.5233 14.1745 29.4189 14.2435 29.3313 14.3311C29.2437 14.4187 29.1748 14.5231 29.1286 14.6381C29.0824 14.753 29.06 14.8761 29.0627 15V16.875" stroke="#9ADB66" stroke-width="2" stroke-linejoin="round"/>
<path d="M57.1875 0.9375H2.8125C1.77697 0.9375 0.9375 1.77697 0.9375 2.8125V57.1875C0.9375 58.223 1.77697 59.0625 2.8125 59.0625H57.1875C58.223 59.0625 59.0625 58.223 59.0625 57.1875V2.8125C59.0625 1.77697 58.223 0.9375 57.1875 0.9375Z" stroke="#9ADB66" stroke-width="2" stroke-linejoin="round"/>
<path d="M0.9375 8.4375H59.0625" stroke="#9ADB66" stroke-width="2" stroke-linejoin="round"/>
<path d="M3.75 4.6875H5.625" stroke="#9ADB66" stroke-width="2" stroke-linejoin="round"/>
<path d="M7.5 4.6875H9.375" stroke="#9ADB66" stroke-width="2" stroke-linejoin="round"/>
<path d="M54.375 4.6875H56.25" stroke="#9ADB66" stroke-width="2" stroke-linejoin="round"/>
<path d="M4.6875 15.9375H8.4375C8.68516 15.9323 8.93133 15.9772 9.16118 16.0696C9.39104 16.162 9.59983 16.2999 9.77499 16.4751C9.95016 16.6502 10.0881 16.859 10.1804 17.0889C10.2728 17.3187 10.3177 17.5649 10.3125 17.8125V47.8125C10.3073 48.0602 10.3522 48.3064 10.4446 48.5362C10.5369 48.7661 10.6748 48.9749 10.85 49.15C11.0252 49.3252 11.234 49.4631 11.4638 49.5555C11.6937 49.6479 11.9398 49.6928 12.1875 49.6875H45.9375C46.1852 49.6823 46.4313 49.7272 46.6612 49.8196C46.891 49.912 47.0998 50.0499 47.275 50.2251C47.4502 50.4002 47.5881 50.609 47.6804 50.8389C47.7728 51.0687 47.8177 51.3149 47.8125 51.5625V54.375" stroke="#9ADB66" stroke-width="2" stroke-linejoin="round"/>
<path d="M20.625 34.6875H15V49.6875H20.625V34.6875Z" stroke="#9ADB66" stroke-width="2" stroke-linejoin="round"/>
<path d="M26.25 29.0625H20.625V49.6875H26.25V29.0625Z" stroke="#9ADB66" stroke-width="2" stroke-linejoin="round"/>
<path d="M31.875 19.6875H26.25V49.6875H31.875V19.6875Z" stroke="#9ADB66" stroke-width="2" stroke-linejoin="round"/>
<path d="M37.5 39.375H31.875V49.6875H37.5V39.375Z" stroke="#9ADB66" stroke-width="2" stroke-linejoin="round"/>
<path d="M43.125 29.0625H37.5V49.6875H43.125V29.0625Z" stroke="#9ADB66" stroke-width="2" stroke-linejoin="round"/>
</svg>
