<svg width="20" height="16" viewBox="0 0 20 16" fill="none" xmlns="http://www.w3.org/2000/svg">
<path fill-rule="evenodd" clip-rule="evenodd" d="M13.6285 3.12111C13.903 3.36518 14.2576 3.5 14.625 3.5H18C18.2761 3.5 18.5 3.72386 18.5 4V13C18.5 13.8284 17.8284 14.5 17 14.5H3C2.17157 14.5 1.5 13.8284 1.5 13V4C1.5 3.72386 1.72386 3.5 2 3.5H5.375C5.74237 3.5 6.09697 3.36518 6.37155 3.12111L7.76905 1.87889C8.04363 1.63482 8.39823 1.5 8.7656 1.5H11.2344C11.6018 1.5 11.9564 1.63482 12.2309 1.87889L13.6285 3.12111ZM2 2H5.375L6.77251 0.757771C7.32166 0.269635 8.03086 0 8.7656 0H11.2344C11.9691 0 12.6783 0.269636 13.2275 0.757772L14.625 2H18C19.1046 2 20 2.89543 20 4V13C20 14.6569 18.6569 16 17 16H3C1.34315 16 0 14.6569 0 13V4C0 2.89543 0.895431 2 2 2ZM10 6.5C11.1046 6.5 12 7.39543 12 8.5C12 9.60457 11.1046 10.5 10 10.5C8.89543 10.5 8 9.60457 8 8.5C8 7.39543 8.89543 6.5 10 6.5ZM10 5C11.933 5 13.5 6.567 13.5 8.5C13.5 10.433 11.933 12 10 12C8.067 12 6.5 10.433 6.5 8.5C6.5 6.567 8.067 5 10 5Z" fill="#FFFFFF"/>
</svg>
