<?xml version="1.0" standalone="no"?>
<!DOCTYPE svg PUBLIC "-//W3C//DTD SVG 20010904//EN"
 "http://www.w3.org/TR/2001/REC-SVG-20010904/DTD/svg10.dtd">
<svg version="1.0" xmlns="http://www.w3.org/2000/svg"
 width="980.000000pt" height="980.000000pt" viewBox="0 0 980.000000 980.000000"
 preserveAspectRatio="xMidYMid meet">
<metadata>
Created by potrace 1.16, written by Peter Selinger 2001-2019
</metadata>
<g transform="translate(0.000000,980.000000) scale(0.100000,-0.100000)" stroke="none">
<path d="M4640 9793 c-381 -26 -614 -62 -940 -143 -583 -145 -1154 -411 -1657
-772 -407 -291 -830 -714 -1121 -1121 -975 -1361 -1191 -3100 -578 -4662 71
-180 283 -601 384 -762 446 -710 1035 -1281 1737 -1684 146 -83 480 -245 630
-304 778 -308 1628 -412 2460 -300 923 125 1767 499 2496 1106 155 129 463
437 590 589 281 336 479 643 670 1035 111 230 170 374 244 600 356 1082 321
2267 -100 3330 -59 151 -221 485 -305 630 -595 1034 -1557 1826 -2678 2205
-421 142 -810 219 -1262 250 -133 9 -462 11 -570 3z m545 -703 c645 -48 1239
-226 1790 -538 140 -79 416 -267 555 -378 173 -138 506 -471 644 -644 111
-139 299 -415 378 -555 505 -893 667 -1932 458 -2941 -133 -638 -418 -1239
-838 -1766 -136 -171 -469 -504 -642 -642 -139 -111 -415 -299 -555 -378
-1137 -644 -2504 -724 -3707 -218 -751 316 -1411 864 -1862 1545 -126 190
-176 275 -264 451 -402 803 -535 1725 -376 2614 83 463 247 919 475 1323 84
150 269 422 385 567 139 174 470 505 644 643 838 666 1878 993 2915 917z"/>
<path d="M4820 7324 c-210 -41 -373 -189 -426 -389 -22 -83 -18 -219 10 -298
62 -173 202 -300 378 -342 125 -29 231 -16 354 45 133 65 241 200 273 340 6
25 11 82 11 128 1 278 -215 504 -495 517 -44 2 -91 1 -105 -1z"/>
<path d="M4550 3940 l0 -1750 350 0 350 0 0 1750 0 1750 -350 0 -350 0 0
-1750z"/>
</g>
</svg>
